<svg width="42" height="42" viewBox="0 0 42 42" fill="none" xmlns="http://www.w3.org/2000/svg">
<g id="bx:bx-coin">
<path id="Vector" d="M21 10.5C12.3025 10.5 3.5 13.2055 3.5 18.375V25.375C3.5 30.5445 12.3025 33.25 21 33.25C29.6975 33.25 38.5 30.5445 38.5 25.375V18.375C38.5 13.2055 29.6975 10.5 21 10.5ZM7 25.375V23.2803C8.10835 23.9079 9.28199 24.4126 10.5 24.7852V28.077C8.204 27.1775 7 26.1065 7 25.375ZM28 25.634V29.0832C26.4827 29.3965 24.7327 29.6257 22.75 29.7097V26.2098C24.5112 26.1396 26.2654 25.9472 28 25.634ZM19.25 29.7115C17.486 29.6439 15.7303 29.4344 14 29.085V25.6357C15.6783 25.9403 17.451 26.138 19.25 26.2133V29.7115ZM31.5 28.077V24.7852C32.7183 24.4134 33.892 23.9087 35 23.2803V25.375C35 26.1065 33.7978 27.1775 31.5 28.077ZM21 22.75C11.9403 22.75 7 19.8608 7 18.375C7 16.8892 11.9403 14 21 14C30.0597 14 35 16.8892 35 18.375C35 19.8608 30.0597 22.75 21 22.75Z" fill="url(#paint0_linear_1_339)"/>
</g>
<defs>
<linearGradient id="paint0_linear_1_339" x1="38.5" y1="10.5" x2="0.894836" y2="16.2694" gradientUnits="userSpaceOnUse">
<stop stop-color="#A700FF"/>
<stop offset="1" stop-color="#0085FF"/>
</linearGradient>
</defs>
</svg>
