<svg width="52" height="52" viewBox="0 0 52 52" fill="none" xmlns="http://www.w3.org/2000/svg">
<g id="tabler:discount-2">
<g id="Group">
<path id="Vector (Stroke)" fill-rule="evenodd" clip-rule="evenodd" d="M33.5607 18.4393C34.1464 19.0251 34.1464 19.9749 33.5607 20.5607L20.5607 33.5607C19.9749 34.1464 19.0251 34.1464 18.4393 33.5607C17.8536 32.9749 17.8536 32.0251 18.4393 31.4393L31.4393 18.4393C32.0251 17.8536 32.9749 17.8536 33.5607 18.4393Z" fill="white"/>
<path id="Vector" d="M20.5833 21.6667C21.1816 21.6667 21.6667 21.1816 21.6667 20.5833C21.6667 19.985 21.1816 19.5 20.5833 19.5C19.985 19.5 19.5 19.985 19.5 20.5833C19.5 21.1816 19.985 21.6667 20.5833 21.6667Z" fill="white"/>
<path id="Vector (Stroke)_2" fill-rule="evenodd" clip-rule="evenodd" d="M20.5833 21C20.8135 21 21 20.8135 21 20.5833C21 20.3532 20.8135 20.1667 20.5833 20.1667C20.3532 20.1667 20.1667 20.3532 20.1667 20.5833C20.1667 20.8135 20.3532 21 20.5833 21ZM18 20.5833C18 19.1566 19.1566 18 20.5833 18C22.0101 18 23.1667 19.1566 23.1667 20.5833C23.1667 22.0101 22.0101 23.1667 20.5833 23.1667C19.1566 23.1667 18 22.0101 18 20.5833Z" fill="white"/>
<path id="Vector_2" d="M31.4168 32.4999C32.0151 32.4999 32.5002 32.0149 32.5002 31.4166C32.5002 30.8183 32.0151 30.3333 31.4168 30.3333C30.8185 30.3333 30.3335 30.8183 30.3335 31.4166C30.3335 32.0149 30.8185 32.4999 31.4168 32.4999Z" fill="white"/>
<path id="Vector (Stroke)_3" fill-rule="evenodd" clip-rule="evenodd" d="M31.4168 31.8333C31.6469 31.8333 31.8335 31.6467 31.8335 31.4166C31.8335 31.1865 31.6469 30.9999 31.4168 30.9999C31.1867 30.9999 31.0002 31.1865 31.0002 31.4166C31.0002 31.6467 31.1867 31.8333 31.4168 31.8333ZM28.8335 31.4166C28.8335 29.9898 29.9901 28.8333 31.4168 28.8333C32.8436 28.8333 34.0002 29.9898 34.0002 31.4166C34.0002 32.8433 32.8436 33.9999 31.4168 33.9999C29.9901 33.9999 28.8335 32.8433 28.8335 31.4166Z" fill="white"/>
<path id="Vector (Stroke)_4" fill-rule="evenodd" clip-rule="evenodd" d="M26.0222 8.0249C25.5916 8.0249 25.1654 8.11001 24.7678 8.27532C24.3703 8.44064 24.0094 8.6829 23.7058 8.98819L23.7028 8.99117L22.1862 10.5078L22.1832 10.5108C21.0099 11.6776 19.4227 12.3329 17.768 12.3338H15.6005C14.7341 12.3338 13.9032 12.678 13.2906 13.2906C12.678 13.9032 12.3338 14.7341 12.3338 15.6005V17.7672C12.3329 19.4219 11.6776 21.0099 10.5108 22.1832L10.5078 22.1862L8.99117 23.7028L8.98819 23.7058C8.6829 24.0094 8.44064 24.3703 8.27532 24.7678C8.11001 25.1654 8.0249 25.5916 8.0249 26.0222C8.0249 26.4527 8.11001 26.879 8.27532 27.2765C8.44064 27.674 8.6829 28.035 8.98819 28.3385L8.99118 28.3415L10.5108 29.8612C11.6776 31.0345 12.3329 32.6216 12.3338 34.2763V36.4438C12.3338 37.3102 12.678 38.1411 13.2906 38.7537C13.9032 39.3663 14.7341 39.7105 15.6005 39.7105H17.7672C19.4219 39.7115 21.0099 40.3668 22.1832 41.5335L22.1862 41.5365L23.7058 43.0562C24.0094 43.3615 24.3703 43.6037 24.7678 43.769C25.1654 43.9344 25.5917 44.0195 26.0222 44.0195C26.4527 44.0195 26.879 43.9344 27.2765 43.769C27.674 43.6037 28.035 43.3615 28.3385 43.0562L28.3415 43.0532L29.8582 41.5365L29.8612 41.5335C31.0345 40.3668 32.6216 39.7115 34.2763 39.7105H36.4438C37.3102 39.7105 38.1411 39.3663 38.7537 38.7537C39.3663 38.1411 39.7105 37.3102 39.7105 36.4438V34.2772C39.7115 32.6225 40.3668 31.0345 41.5335 29.8612L41.5365 29.8582L43.0532 28.3415L43.0562 28.3385C43.3615 28.035 43.6037 27.674 43.769 27.2765C43.9344 26.879 44.0195 26.4527 44.0195 26.0222C44.0195 25.5917 43.9344 25.1654 43.769 24.7678C43.6037 24.3703 43.3615 24.0094 43.0562 23.7058L43.0532 23.7028L41.5335 22.1832C40.3668 21.0099 39.7115 19.4227 39.7105 17.768V15.6005C39.7105 14.7341 39.3663 13.9032 38.7537 13.2906C38.1411 12.678 37.3102 12.3338 36.4438 12.3338H34.2772C32.6225 12.3329 31.0345 11.6776 29.8612 10.5108L29.8582 10.5078L28.3415 8.99117L28.3385 8.98819C28.035 8.6829 27.674 8.44064 27.2765 8.27532C26.879 8.11001 26.4527 8.0249 26.0222 8.0249ZM9.33384 15.6005C9.33384 13.9385 9.99408 12.3445 11.1693 11.1693C12.3445 9.99408 13.9385 9.33384 15.6005 9.33384H17.7663C17.7662 9.33384 17.7664 9.33384 17.7663 9.33384C18.6281 9.33325 19.455 8.99218 20.0664 8.38495C20.0669 8.38448 20.0674 8.38401 20.0678 8.38354L21.5785 6.87284C21.579 6.87233 21.5795 6.87183 21.58 6.87132C22.1621 6.28639 22.854 5.82216 23.6159 5.5053C24.3785 5.18816 25.1963 5.0249 26.0222 5.0249C26.8481 5.0249 27.6659 5.18816 28.4285 5.5053C29.1903 5.8221 29.882 6.28621 30.464 6.87098C30.4646 6.8716 30.4652 6.87222 30.4658 6.87284L31.9765 8.38354C31.977 8.38405 31.9775 8.38455 31.978 8.38506C32.5894 8.99222 33.416 9.33325 34.2777 9.33384C34.2775 9.33384 34.2778 9.33384 34.2777 9.33384H36.4438C38.1059 9.33384 39.6998 9.99408 40.875 11.1693C42.0503 12.3445 42.7105 13.9385 42.7105 15.6005V17.7663C42.711 18.6282 43.0521 19.4548 43.6593 20.0663C43.6598 20.0668 43.6603 20.0673 43.6608 20.0678L45.1715 21.5785C45.172 21.579 45.1725 21.5795 45.173 21.58C45.7579 22.1621 46.2222 22.8539 46.5391 23.6159C46.8562 24.3785 47.0195 25.1963 47.0195 26.0222C47.0195 26.8481 46.8562 27.6659 46.5391 28.4285C46.2222 29.1904 45.7579 29.8823 45.173 30.4644C45.1725 30.4649 45.172 30.4653 45.1715 30.4658L43.6608 31.9765C43.6603 31.977 43.6598 31.9775 43.6593 31.978C43.0521 32.5895 42.711 33.4162 42.7105 34.278V36.4438C42.7105 38.1059 42.0503 39.6998 40.875 40.875C39.6998 42.0503 38.1059 42.7105 36.4438 42.7105H34.278C33.4162 42.711 32.5895 43.0521 31.978 43.6593C31.9775 43.6598 31.977 43.6603 31.9765 43.6608L30.4658 45.1715C30.4653 45.172 30.4649 45.1725 30.4644 45.173C29.8823 45.7579 29.1904 46.2222 28.4285 46.5391C27.6659 46.8562 26.8481 47.0195 26.0222 47.0195C25.1963 47.0195 24.3785 46.8562 23.6159 46.5391C22.8539 46.2222 22.1621 45.7579 21.58 45.173C21.5795 45.1725 21.579 45.172 21.5785 45.1715L20.0678 43.6608C20.0673 43.6603 20.0668 43.6598 20.0663 43.6593C19.4548 43.0521 18.6282 42.711 17.7663 42.7105H15.6005C13.9385 42.7105 12.3445 42.0503 11.1693 40.875C9.99408 39.6998 9.33384 38.1059 9.33384 36.4438V34.278C9.33384 34.2779 9.33384 34.2782 9.33384 34.278C9.33325 33.4163 8.99222 32.5894 8.38506 31.978C8.38455 31.9775 8.38405 31.977 8.38354 31.9765L6.87284 30.4658C6.87222 30.4652 6.8716 30.4646 6.87098 30.464C6.28621 29.882 5.8221 29.1903 5.5053 28.4285C5.18816 27.6659 5.0249 26.8481 5.0249 26.0222C5.0249 25.1963 5.18816 24.3785 5.5053 23.6159C5.82216 22.854 6.28639 22.1621 6.87132 21.58C6.87183 21.5795 6.87233 21.579 6.87284 21.5785L8.38354 20.0678C8.38401 20.0674 8.38448 20.0669 8.38495 20.0664C8.99218 19.455 9.33325 18.6284 9.33384 17.7667C9.33384 17.7666 9.33384 17.7668 9.33384 17.7667V15.6005Z" fill="white"/>
</g>
</g>
</svg>
