<svg width="52" height="52" viewBox="0 0 52 52" fill="none" xmlns="http://www.w3.org/2000/svg">
<g id="ion:exit-outline">
<path id="Vector (Stroke)" fill-rule="evenodd" clip-rule="evenodd" d="M4.91583 9.79083C5.98244 8.72422 7.42908 8.125 8.9375 8.125H28.4375C29.9459 8.125 31.3926 8.72422 32.4592 9.79083C33.5258 10.8574 34.125 12.3041 34.125 13.8125V17.875C34.125 18.7725 33.3975 19.5 32.5 19.5C31.6025 19.5 30.875 18.7725 30.875 17.875V13.8125C30.875 13.166 30.6182 12.546 30.1611 12.0889C29.704 11.6318 29.084 11.375 28.4375 11.375H8.9375C8.29103 11.375 7.67105 11.6318 7.21393 12.0889C6.75681 12.546 6.5 13.166 6.5 13.8125V38.1875C6.5 38.834 6.75681 39.454 7.21393 39.9111C7.67105 40.3682 8.29103 40.625 8.9375 40.625H28.4375C29.084 40.625 29.704 40.3682 30.1611 39.9111C30.6182 39.454 30.875 38.834 30.875 38.1875V34.125C30.875 33.2275 31.6025 32.5 32.5 32.5C33.3975 32.5 34.125 33.2275 34.125 34.125V38.1875C34.125 39.6959 33.5258 41.1426 32.4592 42.2092C31.3926 43.2758 29.9459 43.875 28.4375 43.875H8.9375C7.42908 43.875 5.98244 43.2758 4.91583 42.2092C3.84922 41.1426 3.25 39.6959 3.25 38.1875V13.8125C3.25 12.3041 3.84922 10.8574 4.91583 9.79083Z" fill="white"/>
<path id="Vector (Stroke)_2" fill-rule="evenodd" clip-rule="evenodd" d="M37.851 16.726C38.4856 16.0913 39.5144 16.0913 40.149 16.726L48.274 24.851C48.9087 25.4856 48.9087 26.5144 48.274 27.149L40.149 35.274C39.5144 35.9087 38.4856 35.9087 37.851 35.274C37.2163 34.6394 37.2163 33.6106 37.851 32.976L44.8269 26L37.851 19.024C37.2163 18.3894 37.2163 17.3606 37.851 16.726Z" fill="white"/>
<path id="Vector (Stroke)_3" fill-rule="evenodd" clip-rule="evenodd" d="M17.7734 26C17.7734 25.1025 18.501 24.375 19.3984 24.375H47.125C48.0225 24.375 48.75 25.1025 48.75 26C48.75 26.8975 48.0225 27.625 47.125 27.625H19.3984C18.501 27.625 17.7734 26.8975 17.7734 26Z" fill="white"/>
</g>
</svg>
