<svg width="42" height="43" viewBox="0 0 42 43" fill="none" xmlns="http://www.w3.org/2000/svg">
<g id="bx:bx-ruble">
<path id="Vector" d="M14 37.25H17.5V32H28V28.5H17.5V25H25.375C30.1997 25 34.125 21.0747 34.125 16.25C34.125 11.4253 30.1997 7.5 25.375 7.5H15.75C15.2859 7.5 14.8408 7.68437 14.5126 8.01256C14.1844 8.34075 14 8.78587 14 9.25V21.5H8.75V25H14V28.5H8.75V32H14V37.25ZM17.5 11H25.375C28.2695 11 30.625 13.3555 30.625 16.25C30.625 19.1445 28.2695 21.5 25.375 21.5H17.5V11Z" fill="url(#paint0_linear_1_329)"/>
</g>
<defs>
<linearGradient id="paint0_linear_1_329" x1="34.125" y1="7.50001" x2="6.41997" y2="9.85654" gradientUnits="userSpaceOnUse">
<stop stop-color="#A700FF"/>
<stop offset="1" stop-color="#0085FF"/>
</linearGradient>
</defs>
</svg>
