<svg width="28" height="28" viewBox="0 0 28 28" fill="none" xmlns="http://www.w3.org/2000/svg">
<g id="el:eye-open">
<path id="Vector" d="M18.1963 13.9979C18.1963 16.2223 16.3142 18.0255 13.9924 18.0255C11.6706 18.0255 9.78847 16.2223 9.78847 13.9979C9.78847 11.7735 11.6706 9.9703 13.9924 9.9703C16.3142 9.97027 18.1963 11.7735 18.1963 13.9979ZM14 5.61182C11.5961 5.62248 9.10434 6.2077 6.74557 7.32815C4.99422 8.19433 3.28743 9.41639 1.80586 10.9248C1.07819 11.6947 0.150057 12.8097 0 13.9992C0.0177333 15.0296 1.12303 16.3015 1.80586 17.0737C3.1952 18.5228 4.85753 19.7108 6.74557 20.6712C8.94523 21.7387 11.3799 22.3533 14 22.3875C16.4062 22.3767 18.8974 21.7847 21.2535 20.6712C23.0049 19.805 24.7125 18.5821 26.1941 17.0737C26.9218 16.3037 27.8499 15.1888 28 13.9992C27.9823 12.9688 26.877 11.6969 26.1941 10.9247C24.8048 9.47558 23.1416 8.28855 21.2535 7.3281C19.055 6.26139 16.6143 5.65099 14 5.61182ZM13.9982 7.69427C17.641 7.69427 20.594 10.5175 20.594 14.0001C20.594 17.4828 17.641 20.306 13.9982 20.306C10.3555 20.306 7.40248 17.4827 7.40248 14.0001C7.40248 10.5175 10.3555 7.69427 13.9982 7.69427Z" fill="white"/>
</g>
</svg>
