<svg width="170" height="182" viewBox="0 0 170 182" fill="none" xmlns="http://www.w3.org/2000/svg">
<g id="icon_3_">
<g id="_x33__14_" filter="url(#filter0_f_0_3114)">
<path id="Vector" d="M103.189 162C101.279 162 99.6878 160.568 99.6083 158.658C98.9718 149.906 97.46 140.041 95.3118 131.686C93.8001 125.878 92.1294 120.468 90.5381 115.694C90.2198 120.07 89.5834 124.208 88.7082 128.106C87.1965 134.63 82.0249 149.827 66.1918 148.872C61.8954 148.633 55.3712 145.69 51.0748 139.961C48.6084 136.699 46.2214 131.448 46.6988 123.889C39.0608 125.003 33.571 122.855 30.0702 120.627C24.103 116.808 20.7614 110.761 20.2045 106.704C19.3293 100.18 20.5226 88.4043 38.9017 82.4371C43.9937 80.7662 49.4836 79.6523 55.4508 78.9363C50.8361 75.9924 46.7785 72.7304 43.1982 69.3887C29.1951 56.1813 33.0936 44.9629 36.6739 39.4731C38.9017 36.0518 44.4711 31.9941 51.5522 31.1189C55.6894 30.6415 61.5772 31.0393 68.0218 35.3357C70.8065 28.3342 75.262 24.5948 78.8423 22.6853C85.2074 19.3436 92.368 19.5028 96.2666 21.094C101.2 23.0831 112.1 29.7664 107.724 49.498C106.689 54.2718 105.019 59.2842 102.95 64.2967C108.281 61.5915 113.452 59.4433 118.624 57.9317C137.162 52.5214 144.8 61.5915 147.744 67.4792C149.574 71.1391 150.21 77.9815 147.426 84.5057C145.755 88.3247 142.413 93.178 135.491 96.5197C140.185 102.487 141.061 108.215 140.901 112.273C140.583 119.434 136.764 125.481 133.423 128.106C127.376 132.721 120.056 133.516 112.816 130.254C110.986 129.459 110.19 127.311 110.986 125.481C111.781 123.651 113.93 122.855 115.76 123.651C120.613 125.799 125.068 125.401 129.047 122.378C130.479 121.264 133.502 117.286 133.741 111.955C133.979 106.942 131.672 102.169 126.898 97.7927C125.944 96.9175 125.546 95.5649 125.784 94.2919C126.103 93.0189 126.978 91.9846 128.251 91.6663C134.616 89.7568 138.833 86.3356 140.901 81.6414C142.97 76.8676 142.095 72.0938 141.379 70.6617C137.958 63.8193 131.036 61.8303 120.772 64.8537C114.646 66.604 108.201 69.4683 101.677 73.2873C99.6082 74.4808 97.0622 74.242 95.3118 72.5712C93.5614 70.9799 93.0841 68.4339 94.1184 66.2857C97.2214 59.9207 99.4491 53.7148 100.802 47.8271C103.109 37.4839 100.643 30.4824 93.7206 27.6977C92.0497 27.0612 87.0373 26.4247 82.3431 28.9707C77.8876 31.3576 74.9437 35.7336 73.5911 42.0986C73.3525 43.3716 72.3977 44.4059 71.1247 44.8038C69.8517 45.2016 68.4992 44.8833 67.5444 44.0081C62.6911 39.5526 57.599 37.5635 52.507 38.2C47.3354 38.8365 43.6755 42.019 42.8003 43.3716C38.5835 49.7367 40.4134 56.7382 48.2105 64.058C52.5865 68.1952 57.9173 72.0939 64.0436 75.5946C66.1123 76.7881 67.1465 79.0954 66.5896 81.4027C66.0326 83.71 64.1232 85.3809 61.7363 85.54C54.2574 86.0174 47.3354 87.2904 41.2091 89.2795C31.025 92.5416 26.4103 98.1109 27.4446 105.669C27.6833 107.261 29.5929 111.637 33.9688 114.501C38.3448 117.286 43.6755 117.683 50.0406 115.694C51.3136 115.297 52.666 115.615 53.5412 116.49C54.496 117.365 54.8939 118.718 54.5756 119.991C53.0639 126.276 53.8596 131.527 56.883 135.585C60.0655 139.882 64.8392 141.473 66.5896 141.552C74.0685 142.03 79.2402 136.779 81.6271 126.435C83.0592 120.15 83.6956 113.148 83.5365 105.669C83.457 103.044 85.2074 100.816 87.833 100.339C90.379 99.7818 92.8455 101.134 93.8002 103.601C96.1871 109.727 99.6082 119.275 102.313 129.857C104.541 138.608 106.212 148.952 106.849 158.181C107.008 160.17 105.496 161.92 103.507 162C103.348 162 103.268 162 103.189 162Z" fill="#43C400"/>
</g>
<g id="_x33__14__2" filter="url(#filter1_f_0_3114)">
<path id="Vector_2" d="M103.189 162C101.279 162 99.6878 160.568 99.6083 158.658C98.9718 149.906 97.46 140.041 95.3118 131.686C93.8001 125.878 92.1294 120.468 90.5381 115.694C90.2198 120.07 89.5834 124.208 88.7082 128.106C87.1965 134.63 82.0249 149.827 66.1918 148.872C61.8954 148.633 55.3712 145.69 51.0748 139.961C48.6084 136.699 46.2214 131.448 46.6988 123.889C39.0608 125.003 33.571 122.855 30.0702 120.627C24.103 116.808 20.7614 110.761 20.2045 106.704C19.3293 100.18 20.5226 88.4043 38.9017 82.4371C43.9937 80.7662 49.4836 79.6523 55.4508 78.9363C50.8361 75.9924 46.7785 72.7304 43.1982 69.3887C29.1951 56.1813 33.0936 44.9629 36.6739 39.4731C38.9017 36.0518 44.4711 31.9941 51.5522 31.1189C55.6894 30.6415 61.5772 31.0393 68.0218 35.3357C70.8065 28.3342 75.262 24.5948 78.8423 22.6853C85.2074 19.3436 92.368 19.5028 96.2666 21.094C101.2 23.0831 112.1 29.7664 107.724 49.498C106.689 54.2718 105.019 59.2842 102.95 64.2967C108.281 61.5915 113.452 59.4433 118.624 57.9317C137.162 52.5214 144.8 61.5915 147.744 67.4792C149.574 71.1391 150.21 77.9815 147.426 84.5057C145.755 88.3247 142.413 93.178 135.491 96.5197C140.185 102.487 141.061 108.215 140.901 112.273C140.583 119.434 136.764 125.481 133.423 128.106C127.376 132.721 120.056 133.516 112.816 130.254C110.986 129.459 110.19 127.311 110.986 125.481C111.781 123.651 113.93 122.855 115.76 123.651C120.613 125.799 125.068 125.401 129.047 122.378C130.479 121.264 133.502 117.286 133.741 111.955C133.979 106.942 131.672 102.169 126.898 97.7927C125.944 96.9175 125.546 95.5649 125.784 94.2919C126.103 93.0189 126.978 91.9846 128.251 91.6663C134.616 89.7568 138.833 86.3356 140.901 81.6414C142.97 76.8676 142.095 72.0938 141.379 70.6617C137.958 63.8193 131.036 61.8303 120.772 64.8537C114.646 66.604 108.201 69.4683 101.677 73.2873C99.6082 74.4808 97.0622 74.242 95.3118 72.5712C93.5614 70.9799 93.0841 68.4339 94.1184 66.2857C97.2214 59.9207 99.4491 53.7148 100.802 47.8271C103.109 37.4839 100.643 30.4824 93.7206 27.6977C92.0497 27.0612 87.0373 26.4247 82.3431 28.9707C77.8876 31.3576 74.9437 35.7336 73.5911 42.0986C73.3525 43.3716 72.3977 44.4059 71.1247 44.8038C69.8517 45.2016 68.4992 44.8833 67.5444 44.0081C62.6911 39.5526 57.599 37.5635 52.507 38.2C47.3354 38.8365 43.6755 42.019 42.8003 43.3716C38.5835 49.7367 40.4134 56.7382 48.2105 64.058C52.5865 68.1952 57.9173 72.0939 64.0436 75.5946C66.1123 76.7881 67.1465 79.0954 66.5896 81.4027C66.0326 83.71 64.1232 85.3809 61.7363 85.54C54.2574 86.0174 47.3354 87.2904 41.2091 89.2795C31.025 92.5416 26.4103 98.1109 27.4446 105.669C27.6833 107.261 29.5929 111.637 33.9688 114.501C38.3448 117.286 43.6755 117.683 50.0406 115.694C51.3136 115.297 52.666 115.615 53.5412 116.49C54.496 117.365 54.8939 118.718 54.5756 119.991C53.0639 126.276 53.8596 131.527 56.883 135.585C60.0655 139.882 64.8392 141.473 66.5896 141.552C74.0685 142.03 79.2402 136.779 81.6271 126.435C83.0592 120.15 83.6956 113.148 83.5365 105.669C83.457 103.044 85.2074 100.816 87.833 100.339C90.379 99.7818 92.8455 101.134 93.8002 103.601C96.1871 109.727 99.6082 119.275 102.313 129.857C104.541 138.608 106.212 148.952 106.849 158.181C107.008 160.17 105.496 161.92 103.507 162C103.348 162 103.268 162 103.189 162Z" fill="#43C400"/>
</g>
<g id="_x33__14__3">
<path id="Vector_3" d="M103.189 162C101.279 162 99.6878 160.568 99.6083 158.658C98.9718 149.906 97.46 140.041 95.3118 131.686C93.8001 125.878 92.1294 120.468 90.5381 115.694C90.2198 120.07 89.5834 124.208 88.7082 128.106C87.1965 134.63 82.0249 149.827 66.1918 148.872C61.8954 148.633 55.3712 145.69 51.0748 139.961C48.6084 136.699 46.2214 131.448 46.6988 123.889C39.0608 125.003 33.571 122.855 30.0702 120.627C24.103 116.808 20.7614 110.761 20.2045 106.704C19.3293 100.18 20.5226 88.4043 38.9017 82.4371C43.9937 80.7662 49.4836 79.6523 55.4508 78.9363C50.8361 75.9924 46.7785 72.7304 43.1982 69.3887C29.1951 56.1813 33.0936 44.9629 36.6739 39.4731C38.9017 36.0518 44.4711 31.9941 51.5522 31.1189C55.6894 30.6415 61.5772 31.0393 68.0218 35.3357C70.8065 28.3342 75.262 24.5948 78.8423 22.6853C85.2074 19.3436 92.368 19.5028 96.2666 21.094C101.2 23.0831 112.1 29.7664 107.724 49.498C106.689 54.2718 105.019 59.2842 102.95 64.2967C108.281 61.5915 113.452 59.4433 118.624 57.9317C137.162 52.5214 144.8 61.5915 147.744 67.4792C149.574 71.1391 150.21 77.9815 147.426 84.5057C145.755 88.3247 142.413 93.178 135.491 96.5197C140.185 102.487 141.061 108.215 140.901 112.273C140.583 119.434 136.764 125.481 133.423 128.106C127.376 132.721 120.056 133.516 112.816 130.254C110.986 129.459 110.19 127.311 110.986 125.481C111.781 123.651 113.93 122.855 115.76 123.651C120.613 125.799 125.068 125.401 129.047 122.378C130.479 121.264 133.502 117.286 133.741 111.955C133.979 106.942 131.672 102.169 126.898 97.7927C125.944 96.9175 125.546 95.5649 125.784 94.2919C126.103 93.0189 126.978 91.9846 128.251 91.6663C134.616 89.7568 138.833 86.3356 140.901 81.6414C142.97 76.8676 142.095 72.0938 141.379 70.6617C137.958 63.8193 131.036 61.8303 120.772 64.8537C114.646 66.604 108.201 69.4683 101.677 73.2873C99.6082 74.4808 97.0622 74.242 95.3118 72.5712C93.5614 70.9799 93.0841 68.4339 94.1184 66.2857C97.2214 59.9207 99.4491 53.7148 100.802 47.8271C103.109 37.4839 100.643 30.4824 93.7206 27.6977C92.0497 27.0612 87.0373 26.4247 82.3431 28.9707C77.8876 31.3576 74.9437 35.7336 73.5911 42.0986C73.3525 43.3716 72.3977 44.4059 71.1247 44.8038C69.8517 45.2016 68.4992 44.8833 67.5444 44.0081C62.6911 39.5526 57.599 37.5635 52.507 38.2C47.3354 38.8365 43.6755 42.019 42.8003 43.3716C38.5835 49.7367 40.4134 56.7382 48.2105 64.058C52.5865 68.1952 57.9173 72.0939 64.0436 75.5946C66.1123 76.7881 67.1465 79.0954 66.5896 81.4027C66.0326 83.71 64.1232 85.3809 61.7363 85.54C54.2574 86.0174 47.3354 87.2904 41.2091 89.2795C31.025 92.5416 26.4103 98.1109 27.4446 105.669C27.6833 107.261 29.5929 111.637 33.9688 114.501C38.3448 117.286 43.6755 117.683 50.0406 115.694C51.3136 115.297 52.666 115.615 53.5412 116.49C54.496 117.365 54.8939 118.718 54.5756 119.991C53.0639 126.276 53.8596 131.527 56.883 135.585C60.0655 139.882 64.8392 141.473 66.5896 141.552C74.0685 142.03 79.2402 136.779 81.6271 126.435C83.0592 120.15 83.6956 113.148 83.5365 105.669C83.457 103.044 85.2074 100.816 87.833 100.339C90.379 99.7818 92.8455 101.134 93.8002 103.601C96.1871 109.727 99.6082 119.275 102.313 129.857C104.541 138.608 106.212 148.952 106.849 158.181C107.008 160.17 105.496 161.92 103.507 162C103.348 162 103.268 162 103.189 162Z" fill="#43C400"/>
</g>
<g id="_x32__3_">
<path id="Vector_4" d="M103.188 160.011C102.154 160.011 101.279 159.216 101.199 158.181C100.563 149.27 98.9713 139.325 96.8231 130.891C94.3566 121.423 91.3332 112.751 89.1054 106.784C89.185 114.183 88.469 121.025 87.0368 127.311C82.9791 145.133 72.2382 147.202 66.1914 146.804C62.9293 146.645 56.5643 144.258 52.2679 138.529C49.8014 135.188 47.3349 129.698 48.4488 121.503C40.1742 123.253 34.3662 121.105 30.8654 118.877C24.9778 115.138 22.1931 109.17 21.7952 106.147C20.9996 100.18 22.193 89.2797 39.3786 83.7103C45.6641 81.6417 52.7452 80.3687 60.3832 79.8118C54.1773 76.2314 48.767 72.1737 44.2319 67.9569C31.104 55.5451 34.6844 45.2019 37.9465 40.1099C39.6173 37.4843 44.7094 33.347 51.6313 32.4718C55.8482 31.9148 61.9745 32.5513 68.6578 37.6434C71.1243 29.7666 75.8185 25.7885 79.4784 23.879C85.7639 20.5374 92.5267 21.1738 95.5501 22.3673C101.199 24.5951 109.951 31.1192 106.052 48.9414C104.7 54.9881 102.472 61.3531 99.3691 67.8773C105.973 64.0583 112.577 61.194 118.942 59.2845C136.286 54.272 143.447 62.6261 146.073 68.0364C147.425 70.8211 148.459 77.2657 145.675 83.7103C144.004 87.6089 140.424 92.6214 132.547 95.8039C138.116 101.93 139.151 107.977 138.912 112.035C138.594 119.116 134.616 124.685 132.07 126.674C126.5 130.971 119.817 131.607 113.133 128.663C112.099 128.186 111.701 127.072 112.099 126.038C112.497 125.003 113.69 124.606 114.725 125.004C121.488 128.027 126.58 125.879 129.603 123.492C131.513 121.98 134.695 117.525 134.934 111.876C135.172 106.386 132.706 101.135 127.534 96.4404C126.977 95.963 126.818 95.247 126.977 94.5309C127.137 93.8148 127.694 93.2579 128.33 93.0988C135.172 91.0301 139.707 87.3702 141.935 82.1986C144.243 76.8679 143.208 71.6168 142.413 69.8664C138.673 62.3079 130.876 60.0005 119.896 63.1831C113.611 65.013 107.087 67.8773 100.483 71.7759C99.0509 72.5715 97.3005 72.4124 96.107 71.2985C94.9136 70.1846 94.5953 68.4342 95.3113 66.9225C98.4939 60.4779 100.722 54.1129 102.074 48.0662C105.257 33.8244 99.4486 28.2549 93.9588 26.0272C91.731 25.152 86.2412 24.6746 81.2288 27.3797C76.3754 30.0053 73.1134 34.7791 71.6812 41.542C71.5221 42.2581 71.0446 42.815 70.3286 43.0536C69.6125 43.2923 68.8965 43.1332 68.4191 42.6559C63.168 37.8025 57.6781 35.7338 52.1087 36.4499C46.3006 37.166 42.3225 40.7464 41.2881 42.3376C36.6735 49.4187 38.6626 57.2954 46.9372 65.0926C51.3927 69.3095 56.8825 73.2876 63.0884 76.8679C64.5206 77.6635 65.2366 79.3344 64.8388 80.9256C64.441 82.5169 63.0883 83.7103 61.4971 83.7899C53.859 84.2673 46.778 85.5403 40.5721 87.6089C29.672 91.1097 24.5799 97.3952 25.6937 105.749C25.9324 107.659 28.0807 112.592 33.0136 115.695C37.7874 118.718 43.675 119.195 50.4378 117.127C51.1539 116.888 51.87 117.047 52.3474 117.604C52.9043 118.082 53.0635 118.798 52.9044 119.514C51.3131 126.277 52.1883 132.005 55.4503 136.461C58.8715 140.996 63.9636 142.985 66.4301 143.144C72.3177 143.462 79.9557 140.916 83.1382 126.754C84.5703 120.389 85.2865 113.228 85.0478 105.59C84.9682 103.76 86.2412 102.249 87.9916 101.93C89.7419 101.612 91.4924 102.487 92.1289 104.238C94.5158 110.284 97.937 119.752 100.642 130.334C102.87 139.007 104.541 149.191 105.098 158.34C105.177 159.454 104.382 160.409 103.268 160.489C103.268 160.011 103.268 160.011 103.188 160.011Z" fill="#98EA00"/>
</g>
<g id="_x31__3_">
<path id="Vector_5" d="M103.189 158.657C102.791 158.657 102.473 158.339 102.473 158.02C101.836 149.03 100.245 139.005 98.0965 130.492C95.3914 120.069 92.0497 110.76 89.7424 104.713C89.5037 104.156 89.0263 103.997 88.6285 104.077C88.2307 104.156 87.8329 104.474 87.8329 105.031C87.9921 112.908 87.3556 120.307 85.8439 126.911C81.9453 143.779 71.9203 145.768 66.2713 145.449C63.2479 145.29 57.2807 143.062 53.3025 137.732C49.7222 132.958 48.6084 126.752 50.0405 119.75C41.2091 122.137 35.1623 119.989 31.5024 117.682C25.933 114.181 23.3869 108.612 22.9891 105.827C21.2387 92.7787 32.6958 86.9706 39.6973 84.7428C46.1419 82.6742 53.3821 81.3216 61.2588 80.8442C61.8158 80.8442 62.0545 80.4464 62.134 80.0486C62.2136 79.7304 62.134 79.253 61.6567 78.9347C55.2121 75.2748 49.6427 71.1376 44.9485 66.7616C39.6178 61.6696 31.6614 51.5651 38.9017 40.5058C40.4929 38.1189 45.1871 34.2203 51.7113 33.4247C55.9281 32.8678 62.3728 33.5839 69.2948 39.5511C71.0452 32.6291 74.705 27.5371 79.9562 24.7524C85.8438 21.6494 92.1293 22.2064 94.9936 23.3202C100.245 25.4684 108.44 31.5152 104.7 48.4621C103.348 54.668 100.961 61.2718 97.6987 67.8755C97.46 68.3529 97.6191 68.8302 97.9374 69.0689C98.176 69.3076 98.6535 69.4667 99.1309 69.228C105.973 65.2499 112.656 62.2265 119.181 60.317C126.262 58.2483 138.992 56.5775 144.88 68.3528C146.153 70.8988 147.107 76.9457 144.482 82.9925C142.811 86.891 138.992 92.1422 130.32 95.086C135.412 100.098 137.958 105.907 137.719 111.794C137.401 118.477 133.741 123.649 131.354 125.479C127.694 128.264 121.727 130.889 113.691 127.309C113.293 127.15 113.134 126.752 113.293 126.354C113.452 125.956 113.85 125.797 114.248 125.956C121.647 129.218 127.137 126.911 130.479 124.286C132.547 122.694 136.048 117.841 136.287 111.715C136.525 105.827 133.9 100.258 128.49 95.2451C128.331 95.086 128.251 94.7677 128.251 94.5291C128.33 94.2904 128.49 94.0517 128.728 93.9721C135.889 91.8239 140.742 87.8458 143.129 82.3559C145.516 76.7865 144.641 71.2171 143.527 68.9894C140.742 63.2608 134.218 57.3732 119.578 61.6696C113.213 63.4995 106.53 66.4433 99.8469 70.4215C98.8922 70.9784 97.7783 70.8193 96.9826 70.1032C96.187 69.3872 95.9483 68.1937 96.4256 67.239C99.6082 60.7148 101.915 54.2702 103.268 48.1438C104.78 41.3014 105.655 29.2079 94.4366 24.6728C91.9701 23.6385 86.0825 23.1611 80.5927 26.0253C75.3415 28.8101 71.9203 33.8225 70.4086 41.0627C70.3291 41.3014 70.17 41.5401 69.9313 41.6197C69.6926 41.6992 69.4538 41.6197 69.2151 41.4606C63.7253 36.3686 57.8377 34.2204 51.8705 34.9364C45.9032 35.6525 41.4477 39.2328 40.0952 41.381C36.5944 46.7117 34.7644 55.225 45.9032 65.8068C50.4383 70.1032 56.0077 74.1609 62.2932 77.7413C63.2479 78.2982 63.7253 79.3326 63.4866 80.4464C63.2479 81.4808 62.3727 82.2764 61.2588 82.3559C53.5412 82.8333 46.3806 84.1858 40.0155 86.1749C25.4555 90.8691 23.3869 99.3824 24.2621 105.668C24.5804 108.134 27.0469 113.306 32.1389 116.488C37.2309 119.751 43.4368 120.228 50.5974 118C50.8361 117.921 51.1543 118 51.3135 118.159C51.4726 118.318 51.5521 118.637 51.5521 118.875C49.8813 126.036 50.8361 132.083 54.3369 136.857C57.9968 141.789 63.5662 143.858 66.1918 144.017C78.2854 144.733 82.6613 133.435 84.2525 126.593C85.7642 120.069 86.4007 112.829 86.2416 105.111C86.2416 103.917 86.9577 102.883 88.1511 102.645C89.3446 102.406 90.4584 103.042 90.8563 104.156C93.2431 110.203 96.5848 119.591 99.2899 130.094C101.518 138.687 103.109 148.791 103.746 157.861C103.905 158.259 103.666 158.577 103.189 158.657Z" fill="#FEFE00"/>
</g>
</g>
<defs>
<filter id="filter0_f_0_3114" x="0" y="0" width="169.317" height="182" filterUnits="userSpaceOnUse" color-interpolation-filters="sRGB">
<feFlood flood-opacity="0" result="BackgroundImageFix"/>
<feBlend mode="normal" in="SourceGraphic" in2="BackgroundImageFix" result="shape"/>
<feGaussianBlur stdDeviation="10" result="effect1_foregroundBlur_0_3114"/>
</filter>
<filter id="filter1_f_0_3114" x="10" y="10" width="149.317" height="162" filterUnits="userSpaceOnUse" color-interpolation-filters="sRGB">
<feFlood flood-opacity="0" result="BackgroundImageFix"/>
<feBlend mode="normal" in="SourceGraphic" in2="BackgroundImageFix" result="shape"/>
<feGaussianBlur stdDeviation="5" result="effect1_foregroundBlur_0_3114"/>
</filter>
</defs>
</svg>
