<svg width="181" height="182" viewBox="0 0 181 182" fill="none" xmlns="http://www.w3.org/2000/svg">
<g id="icon_1_">
<g id="_x33__2_" filter="url(#filter0_f_92_6031)">
<path id="Vector" d="M41.2334 161.181C35.5844 161.181 30.2537 158.953 26.2755 154.975C17.9214 146.701 17.9215 133.255 26.196 124.9C27.6282 123.468 29.8559 123.468 31.288 124.9C32.7202 126.333 32.7202 128.56 31.288 129.992C25.8778 135.482 25.8777 144.393 31.3676 149.804C33.9931 152.429 37.494 153.861 41.2334 153.861C41.2334 153.861 41.2334 153.861 41.3129 153.861C45.0524 153.861 48.5532 152.35 51.1788 149.724C52.6109 148.292 54.8387 148.292 56.2708 149.724C57.7029 151.156 57.7029 153.384 56.2708 154.816C52.2927 158.874 46.962 161.102 41.2334 161.102C41.2334 161.181 41.2334 161.181 41.2334 161.181ZM75.4455 151.713C69.7965 151.713 64.4658 149.485 60.4876 145.507C55.316 140.336 53.3271 133.095 54.6001 126.412C47.9168 127.765 40.6765 125.855 35.4254 120.684C27.0712 112.409 27.0712 98.9629 35.3457 90.6088C36.7778 89.1766 39.0056 89.1766 40.4377 90.6088C41.8699 92.0409 41.8699 94.2687 40.4377 95.7008C37.8122 98.3264 36.3801 101.907 36.3801 105.646C36.3801 109.386 37.8918 112.886 40.5174 115.512C43.143 118.138 46.6437 119.57 50.3831 119.57C50.3831 119.57 50.3832 119.57 50.4628 119.57C54.2022 119.57 57.7029 118.058 60.3285 115.432C61.7606 114 63.9885 114 65.4206 115.432C66.1367 116.148 66.4549 117.103 66.4549 117.978C66.4549 118.933 66.1367 119.808 65.4206 120.524C62.795 123.15 61.3628 126.73 61.3628 130.47C61.3628 134.209 62.8746 137.71 65.5001 140.336C68.1257 142.961 71.6265 144.393 75.366 144.393C75.366 144.393 75.366 144.393 75.4455 144.393C79.185 144.393 82.6858 142.882 85.3114 140.256C86.7435 138.824 88.9713 138.824 90.4034 140.256C91.8355 141.688 91.8355 143.916 90.4034 145.348C86.4252 149.406 81.0945 151.634 75.366 151.634C75.5251 151.713 75.5251 151.713 75.4455 151.713ZM109.896 142.006C104.486 142.006 99.0757 139.938 94.9384 135.88C92.3128 133.255 90.4033 130.072 89.4486 126.492C88.8916 124.582 90.0056 122.593 91.9946 122.036C93.9041 121.479 95.8932 122.593 96.4501 124.582C97.0866 126.889 98.3596 129.038 100.11 130.788C105.6 136.198 114.511 136.198 119.921 130.708C122.547 128.083 123.979 124.503 123.979 120.763C123.979 117.024 122.467 113.523 119.842 110.897C118.091 109.147 115.943 107.953 113.636 107.317C111.726 106.76 110.533 104.851 111.09 102.861C111.647 100.952 113.636 99.7585 115.545 100.315C119.126 101.27 122.388 103.18 124.934 105.726C128.991 109.704 131.219 115.035 131.219 120.763C131.219 126.412 129.071 131.822 125.013 135.801C120.876 139.858 115.386 142.006 109.896 142.006ZM84.9135 117.103C79.5032 117.103 74.0929 115.035 69.9557 110.977C67.887 108.988 66.2958 106.601 65.2615 103.896C64.5454 102.066 65.4206 99.9176 67.2505 99.2016C69.0805 98.4059 71.2287 99.3607 71.9447 101.191C72.6608 102.941 73.6951 104.532 75.0477 105.805C80.5375 111.216 89.4486 111.216 94.8589 105.726C98.8371 101.748 100.03 95.7804 97.8822 90.5292C97.1661 88.7788 96.1318 87.2671 94.7793 85.9146C90.2442 81.3795 83.1631 80.5043 77.6733 83.8459C77.4346 84.005 76.6389 84.6415 76.0024 85.1189C74.0133 86.7897 71.2286 89.0175 68.4439 90.4496C68.3644 90.4496 68.2848 90.5292 68.2053 90.5292C60.1694 94.03 50.9401 92.2796 44.7342 86.1532C40.6765 82.1751 38.4487 76.8444 38.4487 71.1158C38.4487 65.4669 40.597 60.0566 44.6547 56.0784C48.6328 52.0207 53.9636 49.793 59.6921 49.793H59.7716C65.4206 49.793 70.7513 52.0207 74.7295 55.9989C77.7529 58.9427 79.7419 62.7617 80.6171 66.899C81.0149 68.8881 79.7419 70.7976 77.7528 71.1954C75.7637 71.5932 73.8543 70.3202 73.4564 68.3311C72.8995 65.626 71.5469 63.1595 69.5578 61.1705C66.9322 58.5449 63.3519 57.1128 59.6124 57.1128C55.873 57.1128 52.3723 58.6245 49.7467 61.25C47.1211 63.8756 45.6889 67.4559 45.6889 71.1954C45.6889 74.9349 47.2007 78.4356 49.8262 81.0612C53.8839 85.1189 59.9307 86.2328 65.1818 84.005C67.2505 82.9707 69.7169 80.9021 71.3082 79.5495C72.4221 78.6743 73.1381 78.0378 73.7746 77.64C82.1288 72.6275 92.7902 73.9801 99.6326 80.8225C101.701 82.8116 103.213 85.1985 104.327 87.8241C107.589 95.7804 105.759 104.771 99.7122 110.897C95.8137 115.035 90.3238 117.103 84.9135 117.103Z" fill="#B03BC5"/>
<path id="Vector_2" d="M138.699 100.474C132.971 100.474 127.003 98.7238 121.354 94.3478C118.49 92.1201 116.023 89.8923 114.034 87.5849C108.544 81.379 106.317 75.3321 106.158 75.0934C105.442 73.1839 106.396 71.1152 108.306 70.4787C110.215 69.7627 112.284 70.7174 112.92 72.627C112.92 72.7065 114.83 77.719 119.365 82.8111C121.036 84.7206 123.184 86.7097 125.73 88.6193C136.551 97.053 147.849 91.8814 152.782 88.7784C147.053 78.8329 139.574 73.1839 132.175 73.1839C132.175 73.1839 132.175 73.1839 132.095 73.1839C130.584 73.1839 129.231 72.2291 128.674 70.797C128.197 69.3648 128.595 67.7736 129.788 66.7393C136.153 61.6472 138.62 53.8499 137.426 43.1088C133.368 43.268 129.629 43.8249 126.208 44.7797C124.298 45.3366 122.309 44.2227 121.752 42.2336C121.195 40.3241 122.309 38.335 124.298 37.7781C128.992 36.505 134.323 35.789 140.052 35.789C142.12 35.789 143.871 37.2211 144.189 39.2898C146.019 50.8265 144.428 60.1355 139.415 67.0575C147.531 69.6831 154.851 76.8438 160.5 87.7441C161.454 89.4945 160.977 91.7222 159.386 92.9157C154.135 97.2121 146.655 100.474 138.699 100.474ZM95.0186 67.3758C94.1434 67.3758 93.2682 67.0575 92.5521 66.421C90.4039 64.4319 88.3353 62.2041 86.3462 59.7376C75.8438 46.4505 80.2994 30.9356 87.3805 21.6266C88.574 20.0354 90.8017 19.558 92.5521 20.4332C106.714 27.6735 114.591 37.6985 114.671 48.6783C114.671 50.6674 113.08 52.3382 111.09 52.3382C109.101 52.3382 107.51 50.7469 107.51 48.7579C107.431 41.2789 101.782 33.8794 91.7566 28.2304C88.6536 33.2429 83.5615 44.541 92.0748 55.2821C93.8252 57.4303 95.5756 59.4194 97.4852 61.1698C98.9173 62.5224 99.0764 64.8297 97.7239 66.2619C97.0078 66.9779 96.0529 67.3758 95.0186 67.3758Z" fill="#43C400"/>
</g>
<g id="_x33__2__2" filter="url(#filter1_f_92_6031)">
<path id="Vector_3" d="M41.2334 161.181C35.5844 161.181 30.2537 158.953 26.2755 154.975C17.9214 146.701 17.9215 133.255 26.196 124.9C27.6282 123.468 29.8559 123.468 31.288 124.9C32.7202 126.333 32.7202 128.56 31.288 129.992C25.8778 135.482 25.8777 144.393 31.3676 149.804C33.9931 152.429 37.494 153.861 41.2334 153.861C41.2334 153.861 41.2334 153.861 41.3129 153.861C45.0524 153.861 48.5532 152.35 51.1788 149.724C52.6109 148.292 54.8387 148.292 56.2708 149.724C57.7029 151.156 57.7029 153.384 56.2708 154.816C52.2927 158.874 46.962 161.102 41.2334 161.102C41.2334 161.181 41.2334 161.181 41.2334 161.181ZM75.4455 151.713C69.7965 151.713 64.4658 149.485 60.4876 145.507C55.316 140.336 53.3271 133.095 54.6001 126.412C47.9168 127.765 40.6765 125.855 35.4254 120.684C27.0712 112.409 27.0712 98.9629 35.3457 90.6088C36.7778 89.1766 39.0056 89.1766 40.4377 90.6088C41.8699 92.0409 41.8699 94.2687 40.4377 95.7008C37.8122 98.3264 36.3801 101.907 36.3801 105.646C36.3801 109.386 37.8918 112.886 40.5174 115.512C43.143 118.138 46.6437 119.57 50.3831 119.57C50.3831 119.57 50.3832 119.57 50.4628 119.57C54.2022 119.57 57.7029 118.058 60.3285 115.432C61.7606 114 63.9885 114 65.4206 115.432C66.1367 116.148 66.4549 117.103 66.4549 117.978C66.4549 118.933 66.1367 119.808 65.4206 120.524C62.795 123.15 61.3628 126.73 61.3628 130.47C61.3628 134.209 62.8746 137.71 65.5001 140.336C68.1257 142.961 71.6265 144.393 75.366 144.393C75.366 144.393 75.366 144.393 75.4455 144.393C79.185 144.393 82.6858 142.882 85.3114 140.256C86.7435 138.824 88.9713 138.824 90.4034 140.256C91.8355 141.688 91.8355 143.916 90.4034 145.348C86.4252 149.406 81.0945 151.634 75.366 151.634C75.5251 151.713 75.5251 151.713 75.4455 151.713ZM109.896 142.006C104.486 142.006 99.0757 139.938 94.9384 135.88C92.3128 133.255 90.4033 130.072 89.4486 126.492C88.8916 124.582 90.0056 122.593 91.9946 122.036C93.9041 121.479 95.8932 122.593 96.4501 124.582C97.0866 126.889 98.3596 129.038 100.11 130.788C105.6 136.198 114.511 136.198 119.921 130.708C122.547 128.083 123.979 124.503 123.979 120.763C123.979 117.024 122.467 113.523 119.842 110.897C118.091 109.147 115.943 107.953 113.636 107.317C111.726 106.76 110.533 104.851 111.09 102.861C111.647 100.952 113.636 99.7585 115.545 100.315C119.126 101.27 122.388 103.18 124.934 105.726C128.991 109.704 131.219 115.035 131.219 120.763C131.219 126.412 129.071 131.822 125.013 135.801C120.876 139.858 115.386 142.006 109.896 142.006ZM84.9135 117.103C79.5032 117.103 74.0929 115.035 69.9557 110.977C67.887 108.988 66.2958 106.601 65.2615 103.896C64.5454 102.066 65.4206 99.9176 67.2505 99.2016C69.0805 98.4059 71.2287 99.3607 71.9447 101.191C72.6608 102.941 73.6951 104.532 75.0477 105.805C80.5375 111.216 89.4486 111.216 94.8589 105.726C98.8371 101.748 100.03 95.7804 97.8822 90.5292C97.1661 88.7788 96.1318 87.2671 94.7793 85.9146C90.2442 81.3795 83.1631 80.5043 77.6733 83.8459C77.4346 84.005 76.6389 84.6415 76.0024 85.1189C74.0133 86.7897 71.2286 89.0175 68.4439 90.4496C68.3644 90.4496 68.2848 90.5292 68.2053 90.5292C60.1694 94.03 50.9401 92.2796 44.7342 86.1532C40.6765 82.1751 38.4487 76.8444 38.4487 71.1158C38.4487 65.4669 40.597 60.0566 44.6547 56.0784C48.6328 52.0207 53.9636 49.793 59.6921 49.793H59.7716C65.4206 49.793 70.7513 52.0207 74.7295 55.9989C77.7529 58.9427 79.7419 62.7617 80.6171 66.899C81.0149 68.8881 79.7419 70.7976 77.7528 71.1954C75.7637 71.5932 73.8543 70.3202 73.4564 68.3311C72.8995 65.626 71.5469 63.1595 69.5578 61.1705C66.9322 58.5449 63.3519 57.1128 59.6124 57.1128C55.873 57.1128 52.3723 58.6245 49.7467 61.25C47.1211 63.8756 45.6889 67.4559 45.6889 71.1954C45.6889 74.9349 47.2007 78.4356 49.8262 81.0612C53.8839 85.1189 59.9307 86.2328 65.1818 84.005C67.2505 82.9707 69.7169 80.9021 71.3082 79.5495C72.4221 78.6743 73.1381 78.0378 73.7746 77.64C82.1288 72.6275 92.7902 73.9801 99.6326 80.8225C101.701 82.8116 103.213 85.1985 104.327 87.8241C107.589 95.7804 105.759 104.771 99.7122 110.897C95.8137 115.035 90.3238 117.103 84.9135 117.103Z" fill="#B03BC5"/>
<path id="Vector_4" d="M138.699 100.474C132.971 100.474 127.003 98.7238 121.354 94.3478C118.49 92.1201 116.023 89.8923 114.034 87.5849C108.544 81.379 106.317 75.3321 106.158 75.0934C105.442 73.1839 106.396 71.1152 108.306 70.4787C110.215 69.7627 112.284 70.7174 112.92 72.627C112.92 72.7065 114.83 77.719 119.365 82.8111C121.036 84.7206 123.184 86.7097 125.73 88.6193C136.551 97.053 147.849 91.8814 152.782 88.7784C147.053 78.8329 139.574 73.1839 132.175 73.1839C132.175 73.1839 132.175 73.1839 132.095 73.1839C130.584 73.1839 129.231 72.2291 128.674 70.797C128.197 69.3648 128.595 67.7736 129.788 66.7393C136.153 61.6472 138.62 53.8499 137.426 43.1088C133.368 43.268 129.629 43.8249 126.208 44.7797C124.298 45.3366 122.309 44.2227 121.752 42.2336C121.195 40.3241 122.309 38.335 124.298 37.7781C128.992 36.505 134.323 35.789 140.052 35.789C142.12 35.789 143.871 37.2211 144.189 39.2898C146.019 50.8265 144.428 60.1355 139.415 67.0575C147.531 69.6831 154.851 76.8438 160.5 87.7441C161.454 89.4945 160.977 91.7222 159.386 92.9157C154.135 97.2121 146.655 100.474 138.699 100.474ZM95.0186 67.3758C94.1434 67.3758 93.2682 67.0575 92.5521 66.421C90.4039 64.4319 88.3353 62.2041 86.3462 59.7376C75.8438 46.4505 80.2994 30.9356 87.3805 21.6266C88.574 20.0354 90.8017 19.558 92.5521 20.4332C106.714 27.6735 114.591 37.6985 114.671 48.6783C114.671 50.6674 113.08 52.3382 111.09 52.3382C109.101 52.3382 107.51 50.7469 107.51 48.7579C107.431 41.2789 101.782 33.8794 91.7566 28.2304C88.6536 33.2429 83.5615 44.541 92.0748 55.2821C93.8252 57.4303 95.5756 59.4194 97.4852 61.1698C98.9173 62.5224 99.0764 64.8297 97.7239 66.2619C97.0078 66.9779 96.0529 67.3758 95.0186 67.3758Z" fill="#43C400"/>
</g>
<g id="_x33__2__3">
<path id="Vector_5" d="M41.2334 161.181C35.5844 161.181 30.2537 158.953 26.2755 154.975C17.9214 146.701 17.9215 133.255 26.196 124.9C27.6282 123.468 29.8559 123.468 31.288 124.9C32.7202 126.333 32.7202 128.56 31.288 129.992C25.8778 135.482 25.8777 144.393 31.3676 149.804C33.9931 152.429 37.494 153.861 41.2334 153.861C41.2334 153.861 41.2334 153.861 41.3129 153.861C45.0524 153.861 48.5532 152.35 51.1788 149.724C52.6109 148.292 54.8387 148.292 56.2708 149.724C57.7029 151.156 57.7029 153.384 56.2708 154.816C52.2927 158.874 46.962 161.102 41.2334 161.102C41.2334 161.181 41.2334 161.181 41.2334 161.181ZM75.4455 151.713C69.7965 151.713 64.4658 149.485 60.4876 145.507C55.316 140.336 53.3271 133.095 54.6001 126.412C47.9168 127.765 40.6765 125.855 35.4254 120.684C27.0712 112.409 27.0712 98.9629 35.3457 90.6088C36.7778 89.1766 39.0056 89.1766 40.4377 90.6088C41.8699 92.0409 41.8699 94.2687 40.4377 95.7008C37.8122 98.3264 36.3801 101.907 36.3801 105.646C36.3801 109.386 37.8918 112.886 40.5174 115.512C43.143 118.138 46.6437 119.57 50.3831 119.57C50.3831 119.57 50.3832 119.57 50.4628 119.57C54.2022 119.57 57.7029 118.058 60.3285 115.432C61.7606 114 63.9885 114 65.4206 115.432C66.1367 116.148 66.4549 117.103 66.4549 117.978C66.4549 118.933 66.1367 119.808 65.4206 120.524C62.795 123.15 61.3628 126.73 61.3628 130.47C61.3628 134.209 62.8746 137.71 65.5001 140.336C68.1257 142.961 71.6265 144.393 75.366 144.393C75.366 144.393 75.366 144.393 75.4455 144.393C79.185 144.393 82.6858 142.882 85.3114 140.256C86.7435 138.824 88.9713 138.824 90.4034 140.256C91.8355 141.688 91.8355 143.916 90.4034 145.348C86.4252 149.406 81.0945 151.634 75.366 151.634C75.5251 151.713 75.5251 151.713 75.4455 151.713ZM109.896 142.006C104.486 142.006 99.0757 139.938 94.9384 135.88C92.3128 133.255 90.4033 130.072 89.4486 126.492C88.8916 124.582 90.0056 122.593 91.9946 122.036C93.9041 121.479 95.8932 122.593 96.4501 124.582C97.0866 126.889 98.3596 129.038 100.11 130.788C105.6 136.198 114.511 136.198 119.921 130.708C122.547 128.083 123.979 124.503 123.979 120.763C123.979 117.024 122.467 113.523 119.842 110.897C118.091 109.147 115.943 107.953 113.636 107.317C111.726 106.76 110.533 104.851 111.09 102.861C111.647 100.952 113.636 99.7585 115.545 100.315C119.126 101.27 122.388 103.18 124.934 105.726C128.991 109.704 131.219 115.035 131.219 120.763C131.219 126.412 129.071 131.822 125.013 135.801C120.876 139.858 115.386 142.006 109.896 142.006ZM84.9135 117.103C79.5032 117.103 74.0929 115.035 69.9557 110.977C67.887 108.988 66.2958 106.601 65.2615 103.896C64.5454 102.066 65.4206 99.9176 67.2505 99.2016C69.0805 98.4059 71.2287 99.3607 71.9447 101.191C72.6608 102.941 73.6951 104.532 75.0477 105.805C80.5375 111.216 89.4486 111.216 94.8589 105.726C98.8371 101.748 100.03 95.7804 97.8822 90.5292C97.1661 88.7788 96.1318 87.2671 94.7793 85.9146C90.2442 81.3795 83.1631 80.5043 77.6733 83.8459C77.4346 84.005 76.6389 84.6415 76.0024 85.1189C74.0133 86.7897 71.2286 89.0175 68.4439 90.4496C68.3644 90.4496 68.2848 90.5292 68.2053 90.5292C60.1694 94.03 50.9401 92.2796 44.7342 86.1532C40.6765 82.1751 38.4487 76.8444 38.4487 71.1158C38.4487 65.4669 40.597 60.0566 44.6547 56.0784C48.6328 52.0207 53.9636 49.793 59.6921 49.793H59.7716C65.4206 49.793 70.7513 52.0207 74.7295 55.9989C77.7529 58.9427 79.7419 62.7617 80.6171 66.899C81.0149 68.8881 79.7419 70.7976 77.7528 71.1954C75.7637 71.5932 73.8543 70.3202 73.4564 68.3311C72.8995 65.626 71.5469 63.1595 69.5578 61.1705C66.9322 58.5449 63.3519 57.1128 59.6124 57.1128C55.873 57.1128 52.3723 58.6245 49.7467 61.25C47.1211 63.8756 45.6889 67.4559 45.6889 71.1954C45.6889 74.9349 47.2007 78.4356 49.8262 81.0612C53.8839 85.1189 59.9307 86.2328 65.1818 84.005C67.2505 82.9707 69.7169 80.9021 71.3082 79.5495C72.4221 78.6743 73.1381 78.0378 73.7746 77.64C82.1288 72.6275 92.7902 73.9801 99.6326 80.8225C101.701 82.8116 103.213 85.1985 104.327 87.8241C107.589 95.7804 105.759 104.771 99.7122 110.897C95.8137 115.035 90.3238 117.103 84.9135 117.103Z" fill="#B03BC5"/>
<path id="Vector_6" d="M138.699 100.474C132.971 100.474 127.003 98.7238 121.354 94.3478C118.49 92.1201 116.023 89.8923 114.034 87.5849C108.544 81.379 106.317 75.3321 106.158 75.0934C105.442 73.1839 106.396 71.1152 108.306 70.4787C110.215 69.7627 112.284 70.7174 112.92 72.627C112.92 72.7065 114.83 77.719 119.365 82.8111C121.036 84.7206 123.184 86.7097 125.73 88.6193C136.551 97.053 147.849 91.8814 152.782 88.7784C147.053 78.8329 139.574 73.1839 132.175 73.1839C132.175 73.1839 132.175 73.1839 132.095 73.1839C130.584 73.1839 129.231 72.2291 128.674 70.797C128.197 69.3648 128.595 67.7736 129.788 66.7393C136.153 61.6472 138.62 53.8499 137.426 43.1088C133.368 43.268 129.629 43.8249 126.208 44.7797C124.298 45.3366 122.309 44.2227 121.752 42.2336C121.195 40.3241 122.309 38.335 124.298 37.7781C128.992 36.505 134.323 35.789 140.052 35.789C142.12 35.789 143.871 37.2211 144.189 39.2898C146.019 50.8265 144.428 60.1355 139.415 67.0575C147.531 69.6831 154.851 76.8438 160.5 87.7441C161.454 89.4945 160.977 91.7222 159.386 92.9157C154.135 97.2121 146.655 100.474 138.699 100.474ZM95.0186 67.3758C94.1434 67.3758 93.2682 67.0575 92.5521 66.421C90.4039 64.4319 88.3353 62.2041 86.3462 59.7376C75.8438 46.4505 80.2994 30.9356 87.3805 21.6266C88.574 20.0354 90.8017 19.558 92.5521 20.4332C106.714 27.6735 114.591 37.6985 114.671 48.6783C114.671 50.6674 113.08 52.3382 111.09 52.3382C109.101 52.3382 107.51 50.7469 107.51 48.7579C107.431 41.2789 101.782 33.8794 91.7566 28.2304C88.6536 33.2429 83.5615 44.541 92.0748 55.2821C93.8252 57.4303 95.5756 59.4194 97.4852 61.1698C98.9173 62.5224 99.0764 64.8297 97.7239 66.2619C97.0078 66.9779 96.0529 67.3758 95.0186 67.3758Z" fill="#43C400"/>
</g>
<g id="_x32__1_">
<path id="Vector_7" d="M41.2332 159.193C35.982 159.193 31.1285 157.204 27.389 153.465C19.6714 145.827 19.6714 133.415 27.3095 125.697C28.1052 124.902 29.3782 124.902 30.0943 125.697C30.8899 126.493 30.8899 127.766 30.0943 128.482C24.0475 134.608 24.0474 144.554 30.1738 150.601C33.1177 153.544 37.0959 155.136 41.2332 155.136C45.45 155.136 49.3487 153.465 52.2925 150.521C53.0882 149.725 54.3612 149.725 55.0773 150.521C55.8729 151.317 55.8729 152.59 55.0773 153.306C51.4174 157.125 46.4844 159.193 41.2332 159.193ZM75.4456 149.725C70.4331 149.725 65.4205 147.816 61.6015 143.997C56.1116 138.507 54.5204 130.63 56.8277 123.708C49.9852 126.095 42.0288 124.583 36.5389 119.093C28.8213 111.455 28.8212 99.0433 36.4593 91.3256C37.2549 90.53 38.528 90.53 39.2441 91.3256C40.0397 92.1213 40.0397 93.3943 39.2441 94.1104C33.1972 100.237 33.1972 110.182 39.3236 116.229C45.45 122.276 55.3956 122.276 61.4424 116.15C62.238 115.354 63.511 115.354 64.2271 116.15C64.6249 116.547 64.7841 117.025 64.7841 117.582C64.7841 118.059 64.6249 118.616 64.2271 119.014C58.1802 125.14 58.1802 135.086 64.3066 141.132C70.433 147.179 80.3786 147.179 86.4254 141.053C87.221 140.257 88.494 140.257 89.2101 141.053C90.0057 141.849 90.0057 143.122 89.2101 143.838C85.5501 147.816 80.5377 149.725 75.4456 149.725ZM109.897 140.019C104.884 140.019 99.8716 138.109 96.0525 134.29C93.6656 131.903 91.9152 128.88 90.9605 125.618C90.6422 124.583 91.2787 123.469 92.313 123.151C93.3474 122.833 94.4612 123.469 94.7795 124.504C95.4956 127.129 96.9278 129.516 98.8373 131.426C104.964 137.473 114.909 137.473 120.956 131.346C127.003 125.22 127.003 115.274 120.876 109.227C118.967 107.318 116.58 105.965 113.954 105.249C112.92 104.931 112.284 103.897 112.522 102.783C112.841 101.748 113.875 101.112 114.989 101.351C118.251 102.226 121.274 103.976 123.661 106.363C131.379 114.001 131.379 126.413 123.741 134.131C120.001 138.109 114.989 140.019 109.897 140.019ZM84.9137 115.195C79.9012 115.195 74.8886 113.285 71.0695 109.466C69.16 107.557 67.7279 105.408 66.6935 102.942C66.2957 101.908 66.7731 100.794 67.8074 100.316C68.8417 99.9185 69.9556 100.396 70.433 101.43C71.2287 103.34 72.4221 105.09 73.9338 106.602C80.0603 112.649 90.0057 112.649 96.0525 106.522C100.508 102.067 101.861 95.3834 99.3942 89.5752C98.5986 87.6657 97.4052 85.9153 95.973 84.4036C90.881 79.3911 83.0041 78.4363 76.8777 82.0962C76.5594 82.2554 75.8434 82.8919 75.0477 83.5284C73.0586 85.1197 70.3534 87.3475 67.8074 88.6205C67.8074 88.6205 67.7279 88.6205 67.7279 88.7C60.3285 91.8826 51.8151 90.2913 46.0866 84.6423C38.3689 77.0042 38.3689 64.5922 46.007 56.8746C49.667 53.1351 54.5998 51.0664 59.851 51.0664H59.9307C65.1819 51.0664 70.0352 53.0555 73.7747 56.795C76.5594 59.5797 78.3894 63.001 79.1851 66.82C79.4238 67.9339 78.7077 68.9682 77.5938 69.1274C76.4799 69.3661 75.4455 68.65 75.2864 67.5361C74.6499 64.5127 73.2178 61.728 70.99 59.5002C68.0462 56.5563 64.1476 54.965 59.9307 54.965H59.851C55.6342 54.965 51.7355 56.6359 48.7917 59.5797C45.8478 62.5236 44.2566 66.5018 44.2566 70.6391C44.2566 74.856 45.9275 78.7546 48.8713 81.6984C53.4065 86.2336 60.1693 87.5066 66.057 84.9605C68.2848 83.8466 70.7513 81.778 72.5813 80.3458C73.6156 79.5502 74.3316 78.9137 74.8886 78.5955C82.6063 73.9808 92.3927 75.1742 98.8373 81.5393C100.747 83.3693 102.179 85.5971 103.213 87.984C106.237 95.3038 104.566 103.658 98.9964 109.307C95.0182 113.285 89.9262 115.195 84.9137 115.195Z" fill="#EC7FF3"/>
<path id="Vector_8" d="M138.539 98.5651C133.447 98.5651 127.878 97.0534 122.388 92.8365C119.603 90.6883 117.216 88.4605 115.307 86.3123C110.055 80.3451 107.828 74.6165 107.748 74.3778C107.35 73.3434 107.907 72.2296 108.942 71.8317C109.976 71.4339 111.09 71.9909 111.488 73.0252C111.488 73.1048 113.477 78.356 118.251 83.6867C120.001 85.6758 122.229 87.6649 124.775 89.7336C130.662 94.3483 137.425 95.7804 144.666 93.8709C149.36 92.6774 153.179 90.3701 155.009 89.0971C148.883 77.799 140.608 71.3544 132.174 71.3544C132.174 71.3544 132.174 71.3544 132.095 71.3544C131.219 71.3544 130.503 70.7974 130.185 70.0018C129.867 69.2061 130.185 68.3309 130.822 67.774C137.903 62.0454 140.528 53.373 138.858 41.1997C134.084 41.2793 129.708 41.8362 125.809 42.9501C124.775 43.2684 123.661 42.6319 123.343 41.5975C123.024 40.5632 123.661 39.4493 124.695 39.1311C129.31 37.858 134.402 37.2215 139.971 37.2215H140.051C141.324 37.2215 142.358 38.0967 142.517 39.3698C144.507 51.543 142.438 61.0906 136.471 67.8536C145.064 69.6835 152.94 76.7647 158.987 88.381C159.544 89.4949 159.226 90.7679 158.271 91.5635C157.157 92.5183 148.883 98.5651 138.539 98.5651ZM95.0179 65.4667C94.5405 65.4667 94.0631 65.3075 93.6653 64.9097C91.5967 63.0002 89.6076 60.7724 87.698 58.3855C74.6496 41.8362 87.3003 24.2527 88.7324 22.2636C89.4485 21.3088 90.801 20.9905 91.9149 21.5475C105.52 28.4695 113.079 38.0172 113.079 48.3604C113.079 49.4743 112.204 50.3495 111.09 50.3495C109.976 50.3495 109.101 49.4743 109.101 48.3604C109.021 40.0063 102.576 31.7316 91.1989 25.6848C89.9258 27.5943 87.6981 31.3338 86.5046 36.1076C84.6747 43.4275 86.1863 50.1109 90.801 55.9986C92.5514 58.2264 94.4611 60.295 96.3706 62.0454C97.1662 62.7615 97.2457 64.0345 96.4501 64.8301C96.1318 65.2279 95.5748 65.4667 95.0179 65.4667Z" fill="#98EA00"/>
</g>
<g id="_x31__1_">
<path id="Vector_9" d="M41.2339 157.76C36.3805 157.76 31.7658 155.85 28.265 152.429C21.1042 145.268 21.0247 133.652 28.1854 126.412C28.5037 126.093 28.9016 126.093 29.2198 126.412C29.5381 126.73 29.5381 127.128 29.2198 127.446C22.616 134.05 22.6955 144.791 29.2993 151.395C32.4819 154.577 36.6988 156.328 41.2339 156.328H41.3134C45.8485 156.328 50.0654 154.498 53.248 151.315C53.5662 150.997 53.9641 150.997 54.2823 151.315C54.6006 151.633 54.6006 152.031 54.2823 152.349C50.7815 155.771 46.1668 157.68 41.2339 157.76ZM75.4463 148.212C70.5929 148.212 65.9782 146.303 62.4774 142.881C56.5101 136.994 55.4758 128.003 59.2949 121.001C52.2933 124.9 43.3821 123.866 37.4149 117.978C33.9141 114.557 32.0045 109.942 32.0045 105.009C32.0045 100.076 33.914 95.4613 37.3352 91.9605C37.6535 91.6423 38.0513 91.6423 38.3696 91.9605C38.6878 92.2788 38.6878 92.6766 38.3696 92.9948C31.7658 99.5986 31.8453 110.34 38.4491 116.943C45.0529 123.547 55.7941 123.468 62.3979 116.864C62.7161 116.546 63.114 116.546 63.4322 116.864C63.5914 117.023 63.6709 117.182 63.6709 117.341C63.6709 117.5 63.5914 117.739 63.4322 117.819C56.8284 124.422 56.908 135.164 63.5117 141.767C66.6943 144.95 70.9112 146.7 75.4463 146.7H75.5258C80.0609 146.7 84.2778 144.87 87.4604 141.688C87.7786 141.37 88.1765 141.37 88.4947 141.688C88.813 142.006 88.813 142.404 88.4947 142.722C85.0735 146.302 80.4588 148.212 75.4463 148.212C75.5259 148.212 75.5259 148.212 75.4463 148.212ZM109.897 138.585C105.203 138.585 100.509 136.834 96.9285 133.254C94.7007 131.026 93.0298 128.242 92.1546 125.139C92.075 124.741 92.2343 124.343 92.6321 124.263C93.0299 124.184 93.4277 124.343 93.5073 124.741C94.3029 127.525 95.8145 130.151 97.8832 132.22C104.487 138.824 115.228 138.744 121.832 132.14C125.014 128.958 126.765 124.661 126.765 120.126C126.765 115.591 124.935 111.374 121.752 108.191C119.684 106.123 117.058 104.611 114.273 103.895C113.876 103.815 113.637 103.418 113.796 103.02C113.875 102.622 114.273 102.383 114.671 102.542C117.695 103.338 120.559 105.009 122.787 107.237C126.287 110.658 128.197 115.273 128.197 120.206C128.197 125.139 126.287 129.753 122.866 133.254C119.365 136.755 114.671 138.585 109.897 138.585ZM84.9144 113.681C80.2201 113.681 75.5258 111.931 71.9455 108.351C70.1951 106.6 68.8425 104.532 67.8878 102.304C67.7286 101.906 67.8877 101.508 68.2855 101.349C68.6833 101.19 69.0812 101.349 69.2403 101.747C70.1155 103.815 71.3886 105.725 72.9798 107.316C79.5836 113.92 90.3247 113.841 96.9285 107.237C101.702 102.383 103.134 95.2226 100.588 88.8575C99.7133 86.7889 98.4402 84.8793 96.849 83.2881C91.3591 77.7982 82.8456 76.7638 76.2419 80.742C75.844 80.9807 75.128 81.5377 74.2528 82.2537C72.3432 83.845 69.7177 85.9932 67.2512 87.2662C60.2496 90.2897 52.2932 88.7779 46.9625 83.4472C43.4617 80.0259 41.5522 75.4113 41.5522 70.4783C41.5522 65.5454 43.4617 60.9307 46.883 57.4299C50.3042 53.9291 54.9188 52.0195 59.8518 52.0195H59.9314C64.7848 52.0195 69.3994 53.9291 72.9002 57.3503C75.5258 59.8963 77.2762 63.1585 77.9923 66.7388C78.0718 67.1366 77.8332 67.5344 77.4354 67.614C77.0376 67.6936 76.6397 67.4549 76.5602 67.0571C75.9237 63.795 74.2529 60.7715 71.866 58.3846C68.6834 55.2021 64.4665 53.4517 59.9314 53.4517H59.8518C55.3166 53.4517 51.0998 55.2816 47.9172 58.4642C44.7347 61.6467 42.9843 65.9432 42.9843 70.4783C42.9843 75.0134 44.8143 79.2303 47.9968 82.4129C52.9298 87.3458 60.2496 88.6984 66.6942 85.9137C69.0016 84.7202 71.5477 82.6516 73.4572 81.1398C74.412 80.3442 75.1281 79.7873 75.6055 79.469C82.8458 75.1726 91.9956 76.2864 97.9628 82.1742C99.7132 83.9246 101.066 85.9932 102.021 88.221C104.805 95.0635 103.294 102.861 98.0424 108.112C94.3029 111.851 89.6087 113.681 84.9144 113.681Z" fill="#FFB5E5"/>
<path id="Vector_10" d="M138.54 97.1323C132.971 97.1323 127.799 95.3023 123.105 91.5628C120.4 89.4146 118.092 87.3459 116.183 85.1977C111.091 79.3896 108.942 73.8997 108.863 73.661C108.704 73.2631 108.942 72.8653 109.261 72.7062C109.658 72.5471 110.056 72.7858 110.215 73.104C110.215 73.1836 112.284 78.6735 117.217 84.2429C119.047 86.3116 121.275 88.3802 123.9 90.4489C130.106 95.3023 137.187 96.814 144.905 94.8249C150.793 93.3132 155.169 90.2898 156.601 89.1759C150.156 76.8435 141.245 69.7623 132.175 69.7623C132.175 69.7623 132.175 69.7623 132.095 69.7623C131.777 69.7623 131.538 69.6032 131.379 69.285C131.3 68.9667 131.379 68.6485 131.618 68.4893C139.336 62.2834 142.041 52.8153 139.893 39.6873C134.641 39.6873 129.709 40.3238 125.412 41.5172C125.014 41.5968 124.616 41.4377 124.537 41.0399C124.457 40.642 124.616 40.2442 125.014 40.1646C129.47 38.8916 134.562 38.3347 139.972 38.3347C140.609 38.3347 141.166 38.7325 141.325 39.369C143.393 52.1788 140.927 61.9651 133.925 68.4893C139.972 69.0463 149.679 72.7858 157.954 88.6985C158.272 89.2554 158.113 89.892 157.635 90.2898C156.362 91.3241 151.589 94.6658 145.303 96.257C143.075 96.814 140.768 97.1323 138.54 97.1323ZM95.0187 63.9542C94.8596 63.9542 94.7005 63.8746 94.5413 63.7951C92.4727 61.8855 90.5632 59.8169 88.6537 57.43C83.4821 50.8262 81.8112 43.4268 83.8003 35.2317C85.3916 28.8666 88.7332 24.1723 89.688 22.8198C90.0858 22.3424 90.7224 22.1833 91.2793 22.5015C109.022 31.5718 111.727 42.472 111.807 48.2006C111.807 48.5984 111.488 48.9166 111.091 48.9166C110.693 48.9166 110.375 48.5984 110.375 48.2006C110.295 39.0508 103.214 30.2192 90.8018 23.8541C89.7675 25.2862 86.7441 29.6622 85.2324 35.55C83.3229 43.2676 84.8346 50.2692 89.7676 56.4752C91.5976 58.7826 93.5071 60.8512 95.4962 62.6812C95.8144 62.9199 95.8144 63.3972 95.5757 63.7155C95.4166 63.8746 95.2574 63.9542 95.0187 63.9542Z" fill="#FEFE00"/>
</g>
</g>
<defs>
<filter id="filter0_f_92_6031" x="0" y="0" width="180.99" height="181.181" filterUnits="userSpaceOnUse" color-interpolation-filters="sRGB">
<feFlood flood-opacity="0" result="BackgroundImageFix"/>
<feBlend mode="normal" in="SourceGraphic" in2="BackgroundImageFix" result="shape"/>
<feGaussianBlur stdDeviation="10" result="effect1_foregroundBlur_92_6031"/>
</filter>
<filter id="filter1_f_92_6031" x="10" y="10" width="160.99" height="161.181" filterUnits="userSpaceOnUse" color-interpolation-filters="sRGB">
<feFlood flood-opacity="0" result="BackgroundImageFix"/>
<feBlend mode="normal" in="SourceGraphic" in2="BackgroundImageFix" result="shape"/>
<feGaussianBlur stdDeviation="5" result="effect1_foregroundBlur_92_6031"/>
</filter>
</defs>
</svg>
