<svg width="164" height="180" viewBox="0 0 164 180" fill="none" xmlns="http://www.w3.org/2000/svg">
<g id="icon_5_">
<g id="_x33__26_" filter="url(#filter0_f_0_3097)">
<path id="Vector" d="M69.4375 159.871C61.4812 159.871 53.8432 158.279 47.0803 155.176C46.5234 154.938 45.8073 154.938 45.3299 155.336C38.8058 159.632 30.6903 159.155 25.6779 154.222C20.6654 149.209 20.188 141.173 24.564 134.57C24.8823 134.013 24.9618 133.376 24.7231 132.819C14.6982 111.258 20.9837 82.6946 40.2379 61.69C41.5905 60.2578 43.8978 60.0987 45.3299 61.4513C46.7621 62.8038 46.9212 65.1112 45.5686 66.5433C28.2239 85.3997 22.4954 110.78 31.2473 129.716C32.5203 132.501 32.2816 135.922 30.6108 138.548C28.2239 142.208 28.3035 146.504 30.8495 149.05C33.3955 151.596 37.6919 151.676 41.3518 149.289C43.9774 147.538 47.319 147.3 50.1833 148.652C69.8353 157.802 96.8072 151.039 115.664 132.183C134.6 113.247 141.362 86.1954 132.133 66.5433C130.86 63.8382 131.019 60.6556 132.61 58.0301C134.759 54.4497 134.52 50.3125 132.133 47.9256C131.099 46.8912 129.746 46.2547 128.235 46.0161C126.245 45.7774 124.893 43.9474 125.132 41.9584C125.37 39.9693 127.2 38.6167 129.189 38.8554C132.292 39.2532 135.157 40.6058 137.305 42.8335C142.078 47.6073 142.715 55.3249 138.896 61.7695C138.578 62.3265 138.578 62.963 138.816 63.4404C143.908 74.2609 145.022 87.5479 141.84 100.755C138.657 114.202 131.417 126.852 120.915 137.354C110.492 147.777 97.8415 155.017 84.4749 158.2C79.3033 159.234 74.2908 159.871 69.4375 159.871ZM40.954 119.532C39.0445 119.532 37.4532 118.1 37.3736 116.191C36.578 104.654 39.9197 92.4013 46.8416 81.5807C47.876 79.9099 50.1833 79.4325 51.8541 80.4668C53.5249 81.5807 54.0023 83.8085 52.968 85.4793C46.9212 95.0269 43.8978 105.768 44.6139 115.713C44.773 117.702 43.2613 119.453 41.2722 119.532C41.1131 119.532 41.0335 119.532 40.954 119.532Z" fill="#FF7D00"/>
<path id="Vector_2" d="M83.521 57.8706C82.4867 57.8706 81.4524 57.8706 80.4181 57.791C74.2917 57.4728 68.4835 56.3589 63.3914 55.4041C58.7767 54.5289 54.8781 53.8128 51.5364 53.7333C36.2602 53.415 28.9404 55.0063 28.8608 55.0063C27.3491 55.3245 25.7578 54.688 24.9622 53.3354C24.1665 51.9829 24.3257 50.312 25.36 49.1186C25.5987 48.8799 31.3273 42.3557 40.0793 35.5132C52.0934 26.2042 63.6301 21.1122 74.3712 20.237C105.719 17.7705 116.858 35.3541 117.336 36.1497C117.813 36.8658 117.972 37.741 117.813 38.5366C117.733 39.2527 116.54 45.8565 107.311 51.7442C105.64 52.8581 103.412 52.3011 102.298 50.6303C101.184 48.9594 101.741 46.7317 103.412 45.6178C107.708 42.9126 109.459 40.1279 110.175 38.6162C107.231 35.1154 97.1264 25.6473 74.8486 27.3977C60.2884 28.5116 46.1261 39.2527 37.931 46.6521C41.5114 46.4134 46.0465 46.3339 51.616 46.4134C55.5146 46.493 59.9702 47.2886 64.6644 48.1638C69.5178 49.039 75.0873 50.0733 80.7363 50.3916C83.6006 50.5507 86.4649 50.4712 88.2949 50.1529C90.2839 49.8346 92.1139 51.1872 92.4322 53.0968C92.7504 55.0859 91.3978 56.9158 89.4883 57.2341C87.9766 57.7114 85.8284 57.8706 83.521 57.8706Z" fill="#43C400"/>
</g>
<g id="_x33__26__2" filter="url(#filter1_f_0_3097)">
<path id="Vector_3" d="M69.4375 159.871C61.4812 159.871 53.8432 158.279 47.0803 155.176C46.5234 154.938 45.8073 154.938 45.3299 155.336C38.8058 159.632 30.6903 159.155 25.6779 154.222C20.6654 149.209 20.188 141.173 24.564 134.57C24.8823 134.013 24.9618 133.376 24.7231 132.819C14.6982 111.258 20.9837 82.6946 40.2379 61.69C41.5905 60.2578 43.8978 60.0987 45.3299 61.4513C46.7621 62.8038 46.9212 65.1112 45.5686 66.5433C28.2239 85.3997 22.4954 110.78 31.2473 129.716C32.5203 132.501 32.2816 135.922 30.6108 138.548C28.2239 142.208 28.3035 146.504 30.8495 149.05C33.3955 151.596 37.6919 151.676 41.3518 149.289C43.9774 147.538 47.319 147.3 50.1833 148.652C69.8353 157.802 96.8072 151.039 115.664 132.183C134.6 113.247 141.362 86.1954 132.133 66.5433C130.86 63.8382 131.019 60.6556 132.61 58.0301C134.759 54.4497 134.52 50.3125 132.133 47.9256C131.099 46.8912 129.746 46.2547 128.235 46.0161C126.245 45.7774 124.893 43.9474 125.132 41.9584C125.37 39.9693 127.2 38.6167 129.189 38.8554C132.292 39.2532 135.157 40.6058 137.305 42.8335C142.078 47.6073 142.715 55.3249 138.896 61.7695C138.578 62.3265 138.578 62.963 138.816 63.4404C143.908 74.2609 145.022 87.5479 141.84 100.755C138.657 114.202 131.417 126.852 120.915 137.354C110.492 147.777 97.8415 155.017 84.4749 158.2C79.3033 159.234 74.2908 159.871 69.4375 159.871ZM40.954 119.532C39.0445 119.532 37.4532 118.1 37.3736 116.191C36.578 104.654 39.9197 92.4013 46.8416 81.5807C47.876 79.9099 50.1833 79.4325 51.8541 80.4668C53.5249 81.5807 54.0023 83.8085 52.968 85.4793C46.9212 95.0269 43.8978 105.768 44.6139 115.713C44.773 117.702 43.2613 119.453 41.2722 119.532C41.1131 119.532 41.0335 119.532 40.954 119.532Z" fill="#FF7D00"/>
<path id="Vector_4" d="M83.521 57.8706C82.4867 57.8706 81.4524 57.8706 80.4181 57.791C74.2917 57.4728 68.4835 56.3589 63.3914 55.4041C58.7767 54.5289 54.8781 53.8128 51.5364 53.7333C36.2602 53.415 28.9404 55.0063 28.8608 55.0063C27.3491 55.3245 25.7578 54.688 24.9622 53.3354C24.1665 51.9829 24.3257 50.312 25.36 49.1186C25.5987 48.8799 31.3273 42.3557 40.0793 35.5132C52.0934 26.2042 63.6301 21.1122 74.3712 20.237C105.719 17.7705 116.858 35.3541 117.336 36.1497C117.813 36.8658 117.972 37.741 117.813 38.5366C117.733 39.2527 116.54 45.8565 107.311 51.7442C105.64 52.8581 103.412 52.3011 102.298 50.6303C101.184 48.9594 101.741 46.7317 103.412 45.6178C107.708 42.9126 109.459 40.1279 110.175 38.6162C107.231 35.1154 97.1264 25.6473 74.8486 27.3977C60.2884 28.5116 46.1261 39.2527 37.931 46.6521C41.5114 46.4134 46.0465 46.3339 51.616 46.4134C55.5146 46.493 59.9702 47.2886 64.6644 48.1638C69.5178 49.039 75.0873 50.0733 80.7363 50.3916C83.6006 50.5507 86.4649 50.4712 88.2949 50.1529C90.2839 49.8346 92.1139 51.1872 92.4322 53.0968C92.7504 55.0859 91.3978 56.9158 89.4883 57.2341C87.9766 57.7114 85.8284 57.8706 83.521 57.8706Z" fill="#43C400"/>
</g>
<g id="_x33__26__3">
<path id="Vector_5" d="M69.4375 159.871C61.4812 159.871 53.8432 158.279 47.0803 155.176C46.5234 154.938 45.8073 154.938 45.3299 155.336C38.8058 159.632 30.6903 159.155 25.6779 154.222C20.6654 149.209 20.188 141.173 24.564 134.57C24.8823 134.013 24.9618 133.376 24.7231 132.819C14.6982 111.258 20.9837 82.6946 40.2379 61.69C41.5905 60.2578 43.8978 60.0987 45.3299 61.4513C46.7621 62.8038 46.9212 65.1112 45.5686 66.5433C28.2239 85.3997 22.4954 110.78 31.2473 129.716C32.5203 132.501 32.2816 135.922 30.6108 138.548C28.2239 142.208 28.3035 146.504 30.8495 149.05C33.3955 151.596 37.6919 151.676 41.3518 149.289C43.9774 147.538 47.319 147.3 50.1833 148.652C69.8353 157.802 96.8072 151.039 115.664 132.183C134.6 113.247 141.362 86.1954 132.133 66.5433C130.86 63.8382 131.019 60.6556 132.61 58.0301C134.759 54.4497 134.52 50.3125 132.133 47.9256C131.099 46.8912 129.746 46.2547 128.235 46.0161C126.245 45.7774 124.893 43.9474 125.132 41.9584C125.37 39.9693 127.2 38.6167 129.189 38.8554C132.292 39.2532 135.157 40.6058 137.305 42.8335C142.078 47.6073 142.715 55.3249 138.896 61.7695C138.578 62.3265 138.578 62.963 138.816 63.4404C143.908 74.2609 145.022 87.5479 141.84 100.755C138.657 114.202 131.417 126.852 120.915 137.354C110.492 147.777 97.8415 155.017 84.4749 158.2C79.3033 159.234 74.2908 159.871 69.4375 159.871ZM40.954 119.532C39.0445 119.532 37.4532 118.1 37.3736 116.191C36.578 104.654 39.9197 92.4013 46.8416 81.5807C47.876 79.9099 50.1833 79.4325 51.8541 80.4668C53.5249 81.5807 54.0023 83.8085 52.968 85.4793C46.9212 95.0269 43.8978 105.768 44.6139 115.713C44.773 117.702 43.2613 119.453 41.2722 119.532C41.1131 119.532 41.0335 119.532 40.954 119.532Z" fill="#FF7D00"/>
<path id="Vector_6" d="M83.521 57.8706C82.4867 57.8706 81.4524 57.8706 80.4181 57.791C74.2917 57.4728 68.4835 56.3589 63.3914 55.4041C58.7767 54.5289 54.8781 53.8128 51.5364 53.7333C36.2602 53.415 28.9404 55.0063 28.8608 55.0063C27.3491 55.3245 25.7578 54.688 24.9622 53.3354C24.1665 51.9829 24.3257 50.312 25.36 49.1186C25.5987 48.8799 31.3273 42.3557 40.0793 35.5132C52.0934 26.2042 63.6301 21.1122 74.3712 20.237C105.719 17.7705 116.858 35.3541 117.336 36.1497C117.813 36.8658 117.972 37.741 117.813 38.5366C117.733 39.2527 116.54 45.8565 107.311 51.7442C105.64 52.8581 103.412 52.3011 102.298 50.6303C101.184 48.9594 101.741 46.7317 103.412 45.6178C107.708 42.9126 109.459 40.1279 110.175 38.6162C107.231 35.1154 97.1264 25.6473 74.8486 27.3977C60.2884 28.5116 46.1261 39.2527 37.931 46.6521C41.5114 46.4134 46.0465 46.3339 51.616 46.4134C55.5146 46.493 59.9702 47.2886 64.6644 48.1638C69.5178 49.039 75.0873 50.0733 80.7363 50.3916C83.6006 50.5507 86.4649 50.4712 88.2949 50.1529C90.2839 49.8346 92.1139 51.1872 92.4322 53.0968C92.7504 55.0859 91.3978 56.9158 89.4883 57.2341C87.9766 57.7114 85.8284 57.8706 83.521 57.8706Z" fill="#43C400"/>
</g>
<g id="_x32__5_">
<path id="Vector_7" d="M69.4377 157.879C61.72 157.879 54.3207 156.368 47.7965 153.344C46.6827 152.867 45.4096 152.946 44.4549 153.583C38.5672 157.481 31.327 157.084 26.8715 152.628C22.416 148.173 22.0181 140.932 25.9167 135.045C26.5532 134.01 26.7124 132.737 26.1554 131.703C16.4487 110.778 22.5751 82.8514 41.4315 62.4037C42.1476 61.6081 43.4206 61.5285 44.2162 62.3242C45.0118 63.0402 45.0914 64.3132 44.2958 65.1088C26.4737 84.4426 20.6656 110.539 29.7357 130.032C30.8496 132.34 30.6109 135.124 29.1788 137.272C26.3145 141.569 26.4737 146.74 29.5766 149.843C32.6796 152.946 37.8512 153.105 42.1476 150.241C44.2958 148.809 47.0805 148.65 49.3878 149.684C69.6764 159.152 97.3643 152.23 116.698 132.896C136.111 113.483 143.033 85.7157 133.486 65.3475C132.452 63.1198 132.611 60.4942 133.884 58.346C136.35 54.1292 136.111 49.1963 133.168 46.2524C131.895 44.9794 130.224 44.1838 128.314 43.9451C127.2 43.786 126.484 42.8312 126.564 41.7173C126.723 40.6035 127.757 39.8874 128.792 39.967C131.576 40.3648 134.043 41.5582 135.952 43.4677C140.169 47.6846 140.726 54.6065 137.305 60.4146C136.668 61.449 136.668 62.6424 137.146 63.6767C147.409 85.477 140.169 115.074 119.562 135.681C109.299 145.865 96.9665 152.946 83.8386 156.129C79.0648 157.322 74.2114 157.879 69.4377 157.879ZM40.9541 117.62C39.9198 117.62 39.0446 116.825 38.965 115.79C38.1694 104.652 41.4315 92.7172 48.1943 82.1353C48.7513 81.1806 50.0243 80.9419 50.979 81.4988C51.9338 82.0558 52.1725 83.3288 51.6156 84.2835C45.3301 94.0698 42.3067 105.209 43.0228 115.472C43.1023 116.586 42.3067 117.541 41.1928 117.62C41.0337 117.62 40.9541 117.62 40.9541 117.62Z" fill="#FFA800"/>
<path id="Vector_8" d="M83.5218 55.9591C82.5671 55.9591 81.5328 55.9591 80.4984 55.8796C74.4516 55.5613 68.723 54.527 63.7105 53.5722C59.2549 52.7766 55.038 51.981 51.6168 51.9014C36.0223 51.5831 28.6229 53.1744 28.5433 53.254C27.6681 53.4131 26.8725 53.0949 26.3951 52.3788C25.9973 51.5036 26.0769 50.5488 26.6338 49.9123C26.8725 49.6736 32.442 43.229 41.1144 36.5456C52.8898 27.4754 64.1083 22.4628 74.5312 21.5876C104.845 19.2007 115.586 35.9887 115.984 36.7047C116.223 37.1026 116.302 37.5799 116.223 38.0573C116.223 38.296 115.188 44.5815 106.436 50.151C105.481 50.7079 104.288 50.4693 103.651 49.5145C103.095 48.5597 103.333 47.3663 104.288 46.7298C109.857 43.1494 111.528 39.569 112.085 38.0573C109.857 35.1135 99.5141 23.5767 74.7698 25.4863C62.7557 26.441 51.219 33.6813 43.5809 39.569C39.4436 42.7516 35.9428 45.9341 33.5559 48.321C37.534 47.9232 43.5013 47.605 51.6964 47.7641C55.4359 47.8437 59.8119 48.6393 64.4266 49.5145C69.3595 50.4693 74.929 51.5036 80.7371 51.8218C83.7605 51.981 86.7044 51.9014 88.6935 51.5832C89.8074 51.424 90.7621 52.1401 91.0008 53.254C91.16 54.3679 90.4439 55.3226 89.33 55.5613C87.8183 55.8 85.7496 55.9591 83.5218 55.9591Z" fill="#98EA00"/>
</g>
<g id="_x31__6_">
<path id="Vector_9" d="M69.4368 156.289C61.8783 156.289 54.6381 154.777 48.3526 151.833C46.9205 151.117 45.0905 151.276 43.738 152.151C38.3277 155.732 31.724 155.413 27.7458 151.356C23.7677 147.378 23.4494 140.774 26.9502 135.364C27.8254 134.011 27.9845 132.261 27.2684 130.749C17.7209 110.222 23.7677 82.9315 42.3058 62.8021C42.5445 62.4838 43.0219 62.4838 43.3402 62.7225C43.6584 62.9612 43.6584 63.4386 43.4197 63.7569C25.2794 83.4885 19.3122 110.142 28.621 130.112C29.4962 132.022 29.3371 134.329 28.1436 136.08C24.9611 140.933 25.1998 146.741 28.7006 150.242C32.2014 153.743 38.0095 153.981 42.8628 150.799C44.6132 149.605 46.9205 149.446 48.83 150.321C69.5959 159.948 97.8408 152.947 117.572 133.215C137.384 113.404 144.385 85.0797 134.599 64.2342C133.724 62.4043 133.883 60.2561 134.917 58.4261C137.702 53.7319 137.304 48.1625 133.962 44.8209C132.451 43.3092 130.541 42.434 128.393 42.1157C127.995 42.0362 127.756 41.7179 127.756 41.3201C127.836 40.9223 128.154 40.6836 128.552 40.6836C131.019 41.0018 133.246 42.1157 134.997 43.7866C138.816 47.6056 139.293 53.891 136.111 59.1422C135.315 60.4948 135.235 62.1656 135.872 63.5977C145.897 84.9206 138.816 113.961 118.607 134.17C108.582 144.195 96.4087 151.197 83.5195 154.299C78.8252 155.732 74.0515 156.289 69.4368 156.289ZM40.9533 116.03C40.5555 116.03 40.2372 115.711 40.2372 115.393C39.5211 104.493 42.7037 92.8769 49.2278 82.5337C49.4665 82.2155 49.8643 82.1359 50.2621 82.295C50.5804 82.5337 50.66 82.9315 50.5008 83.3293C44.0562 93.3543 40.9533 104.732 41.6693 115.314C41.6693 115.632 41.3511 115.95 40.9533 116.03Z" fill="#FFFF3A"/>
<path id="Vector_10" d="M83.6 54.2901C82.6453 54.2901 81.6905 54.2901 80.6562 54.2105C74.6889 53.8922 69.0399 52.8579 64.0274 51.9031C59.4922 51.0279 55.2753 50.3119 51.695 50.2323C35.8618 49.9141 28.3828 51.5849 28.3033 51.5849C27.985 51.6645 27.6668 51.5053 27.5076 51.2666C27.3485 51.0279 27.3485 50.6301 27.5872 50.3915C27.6668 50.3119 33.3158 43.7877 41.9087 37.1839C49.865 31.0575 61.9587 23.4989 74.6093 22.5442C90.0447 21.3507 100.149 25.3289 105.878 28.9093C112.163 32.8079 114.789 36.9452 114.869 37.1043C114.948 37.2634 115.028 37.4226 114.948 37.5817C114.948 37.8204 113.993 43.549 105.798 48.8002C105.48 49.0389 105.003 48.8797 104.764 48.5615C104.525 48.2432 104.684 47.7658 105.003 47.5272C111.686 43.2307 113.198 38.6956 113.516 37.5817C112.163 35.5926 101.422 21.9076 74.6889 23.9763C54.5593 25.5676 35.3844 44.1855 30.0537 49.7549C33.3158 49.2776 40.3174 48.4819 51.6154 48.7206C55.2753 48.8002 59.5718 49.5958 64.1865 50.471C69.199 51.4258 74.7685 52.4601 80.6562 52.7784C83.7592 52.9375 86.7826 52.8579 88.8512 52.4601C89.249 52.3805 89.6469 52.6988 89.6469 53.0171C89.7264 53.4149 89.4082 53.8127 89.0899 53.8127C87.6578 54.2105 85.6687 54.2901 83.6 54.2901Z" fill="#FEFE00"/>
</g>
</g>
<defs>
<filter id="filter0_f_0_3097" x="0" y="0" width="163.624" height="179.871" filterUnits="userSpaceOnUse" color-interpolation-filters="sRGB">
<feFlood flood-opacity="0" result="BackgroundImageFix"/>
<feBlend mode="normal" in="SourceGraphic" in2="BackgroundImageFix" result="shape"/>
<feGaussianBlur stdDeviation="10" result="effect1_foregroundBlur_0_3097"/>
</filter>
<filter id="filter1_f_0_3097" x="10" y="10" width="143.624" height="159.871" filterUnits="userSpaceOnUse" color-interpolation-filters="sRGB">
<feFlood flood-opacity="0" result="BackgroundImageFix"/>
<feBlend mode="normal" in="SourceGraphic" in2="BackgroundImageFix" result="shape"/>
<feGaussianBlur stdDeviation="5" result="effect1_foregroundBlur_0_3097"/>
</filter>
</defs>
</svg>
