<svg width="44" height="53" viewBox="0 0 44 53" fill="none" xmlns="http://www.w3.org/2000/svg">
<path d="M1.50459 25.8602C1.50459 25.8602 3.55899 28.8783 7.86484 31.433C7.86484 31.433 4.74636 5.07732 25.0653 0.5C19.8595 19.606 31.6871 24.9942 35.9986 14.9001C43.1986 24.5131 37.7318 32.9 37.7318 32.9C40.6842 33.3253 43.1641 30.0999 43.1641 30.0999C43.1862 30.4972 43.1986 30.8972 43.1986 31.3001C43.1987 43.0085 33.7072 52.5 21.9988 52.5C10.2904 52.5 0.798828 43.0085 0.798828 31.3C0.798828 29.4193 1.04502 27.5963 1.50459 25.8602Z" fill="#FF5420"/>
<path d="M43.1615 30.0999C43.1615 30.0999 40.6816 33.3253 37.7292 32.9C37.7292 32.9 43.196 24.5131 35.996 14.9001C31.6845 24.9942 19.8569 19.606 25.0627 0.5C23.9744 0.745172 22.9539 1.05321 21.9961 1.41589V52.5C33.7045 52.5 43.196 43.0085 43.196 31.3C43.196 30.8972 43.1837 30.4972 43.1615 30.0999Z" fill="#FF3912"/>
<path d="M12.7012 43.2022C12.7012 48.337 16.8638 52.4996 21.9986 52.4996C27.1334 52.4996 31.296 48.337 31.296 43.2022C31.296 40.4538 30.1036 37.984 28.2077 36.2819C24.613 41.1656 19.4904 33.7575 23.4826 28.3477C23.4826 28.3477 12.7012 29.6987 12.7012 43.2022Z" fill="#FFC81A"/>
<path d="M31.2935 43.2022C31.2935 40.4538 30.1011 37.984 28.2052 36.2819C24.6105 41.1656 19.4879 33.7575 23.4801 28.3477C23.4801 28.3477 22.8943 28.4213 21.9961 28.7047V52.4996C27.1309 52.4996 31.2935 48.337 31.2935 43.2022Z" fill="#F8A400"/>
</svg>
