<svg width="30" height="30" viewBox="0 0 30 30" fill="none" xmlns="http://www.w3.org/2000/svg">
<g id="icon-park-outline:buy">
<g id="Group">
<path id="Vector (Stroke)" fill-rule="evenodd" clip-rule="evenodd" d="M2.83405 8.52439C3.07057 8.26971 3.40244 8.125 3.75 8.125H26.25C26.5976 8.125 26.9294 8.26971 27.1659 8.52439C27.4025 8.77907 27.5223 9.12073 27.4966 9.46734L26.2466 26.3423C26.1982 26.9951 25.6545 27.5 25 27.5H5C4.34547 27.5 3.80177 26.9951 3.75342 26.3423L2.50342 9.46734C2.47774 9.12073 2.59754 8.77907 2.83405 8.52439ZM5.09602 10.625L6.16084 25H23.8392L24.904 10.625H5.09602Z" fill="white"/>
<path id="Vector (Stroke)_2" fill-rule="evenodd" clip-rule="evenodd" d="M8.75 3.75C8.75 3.05964 9.30964 2.5 10 2.5H20C20.6904 2.5 21.25 3.05964 21.25 3.75V11.875C21.25 12.5654 20.6904 13.125 20 13.125C19.3096 13.125 18.75 12.5654 18.75 11.875V5H11.25V11.875C11.25 12.5654 10.6904 13.125 10 13.125C9.30964 13.125 8.75 12.5654 8.75 11.875V3.75Z" fill="white"/>
<path id="Vector (Stroke)_3" fill-rule="evenodd" clip-rule="evenodd" d="M8.75 21.25C8.75 20.5596 9.30964 20 10 20H20C20.6904 20 21.25 20.5596 21.25 21.25C21.25 21.9404 20.6904 22.5 20 22.5H10C9.30964 22.5 8.75 21.9404 8.75 21.25Z" fill="white"/>
</g>
</g>
</svg>
