<svg width="178" height="180" viewBox="0 0 178 180" fill="none" xmlns="http://www.w3.org/2000/svg">
<g id="icon_6_">
<g id="_x33__32_" filter="url(#filter0_f_0_3075)">
<path id="Vector" d="M117.862 159.713H61.8501C59.145 159.713 56.8377 157.564 56.599 154.859C56.042 147.539 54.9281 122 65.1918 101.393C72.6707 86.3555 84.0482 73.705 91.6862 66.1465H62.0093C61.691 66.1465 61.3727 66.3852 61.2136 66.7034L51.6661 84.446C50.3931 86.7533 48.0062 88.1854 45.4602 88.1854H27.0811C23.1825 88.1854 20 84.9234 20 80.9452V28.3541C20 26.0468 21.0343 23.8986 22.8643 22.546C24.6147 21.1934 26.8424 20.7956 28.9906 21.3526L41.7207 24.9329C47.4492 26.5242 53.496 26.365 59.0654 24.376C64.7939 22.3869 73.7846 20 84.5256 20C94.8688 20 103.223 22.3073 108.394 24.1373C114.043 26.2059 120.09 26.365 126.057 24.6942L139.822 20.7956C142.686 20 145.789 21.1139 147.539 23.5803L156.212 35.9921C158.042 38.6177 158.042 42.1981 156.053 44.7441C153.427 48.1653 148.176 55.1668 142.686 64.3166C141.652 65.9874 139.424 66.5443 137.753 65.51C136.082 64.4757 135.525 62.2479 136.56 60.5771C142.209 51.1887 147.619 43.8689 150.324 40.3681C150.324 40.2885 150.324 40.2885 150.324 40.209L141.652 27.8767L128.126 31.7753C120.727 33.9235 113.009 33.6848 106.008 31.0592C101.393 29.3884 93.914 27.3198 84.6051 27.3198C74.978 27.3198 66.783 29.468 61.6115 31.2979C54.6099 33.7644 47.131 34.0031 39.9703 31.9344L27.4789 28.4337V81.0248H45.6193L55.1668 63.3618C56.599 60.6567 59.3837 59.0654 62.3275 59.0654H96.46C98.6878 59.0654 100.677 60.418 101.472 62.4866C102.348 64.6348 101.791 67.0217 100.12 68.5334C94.471 73.7845 80.4679 87.7876 72.0342 104.735C63.2823 122.238 63.521 143.959 63.9983 152.552H115.953C115.078 144.436 113.884 124.466 119.295 100.756C120.965 93.4366 123.83 85.4803 127.728 77.2057C128.603 75.3758 130.752 74.6597 132.502 75.4554C134.332 76.3305 135.048 78.4788 134.252 80.2292C130.593 88.1059 127.887 95.5052 126.376 102.348C120.647 127.49 122.636 148.096 123.432 153.825C123.671 155.337 123.193 156.848 122.159 157.962C120.886 158.996 119.374 159.713 117.862 159.713Z" fill="#EB2D62"/>
<path id="Vector_2" d="M78.0803 141.97H78.0007C76.0116 141.89 74.4204 140.299 74.4999 138.31C74.7386 128.922 76.2503 115.396 82.2972 103.859C83.2519 102.109 85.4002 101.393 87.1506 102.347C88.901 103.302 89.617 105.45 88.6623 107.201C83.2519 117.464 81.8994 129.876 81.7402 138.469C81.6607 140.379 80.0694 141.97 78.0803 141.97Z" fill="#EB2D62"/>
<path id="Vector_3" d="M38.6184 66.9421C36.6293 66.9421 35.0381 65.3508 35.0381 63.3618V47.3694C35.0381 45.3803 36.6293 43.7891 38.6184 43.7891C40.6075 43.7891 42.1988 45.3803 42.1988 47.3694V63.3618C42.2784 65.3508 40.6075 66.9421 38.6184 66.9421Z" fill="#EB2D62"/>
</g>
<g id="_x33__32__2" filter="url(#filter1_f_0_3075)">
<path id="Vector_4" d="M117.862 159.713H61.8501C59.145 159.713 56.8377 157.564 56.599 154.859C56.042 147.539 54.9281 122 65.1918 101.393C72.6707 86.3555 84.0482 73.705 91.6862 66.1465H62.0093C61.691 66.1465 61.3727 66.3852 61.2136 66.7034L51.6661 84.446C50.3931 86.7533 48.0062 88.1854 45.4602 88.1854H27.0811C23.1825 88.1854 20 84.9234 20 80.9452V28.3541C20 26.0468 21.0343 23.8986 22.8643 22.546C24.6147 21.1934 26.8424 20.7956 28.9906 21.3526L41.7207 24.9329C47.4492 26.5242 53.496 26.365 59.0654 24.376C64.7939 22.3869 73.7846 20 84.5256 20C94.8688 20 103.223 22.3073 108.394 24.1373C114.043 26.2059 120.09 26.365 126.057 24.6942L139.822 20.7956C142.686 20 145.789 21.1139 147.539 23.5803L156.212 35.9921C158.042 38.6177 158.042 42.1981 156.053 44.7441C153.427 48.1653 148.176 55.1668 142.686 64.3166C141.652 65.9874 139.424 66.5443 137.753 65.51C136.082 64.4757 135.525 62.2479 136.56 60.5771C142.209 51.1887 147.619 43.8689 150.324 40.3681C150.324 40.2885 150.324 40.2885 150.324 40.209L141.652 27.8767L128.126 31.7753C120.727 33.9235 113.009 33.6848 106.008 31.0592C101.393 29.3884 93.914 27.3198 84.6051 27.3198C74.978 27.3198 66.783 29.468 61.6115 31.2979C54.6099 33.7644 47.131 34.0031 39.9703 31.9344L27.4789 28.4337V81.0248H45.6193L55.1668 63.3618C56.599 60.6567 59.3837 59.0654 62.3275 59.0654H96.46C98.6878 59.0654 100.677 60.418 101.472 62.4866C102.348 64.6348 101.791 67.0217 100.12 68.5334C94.471 73.7845 80.4679 87.7876 72.0342 104.735C63.2823 122.238 63.521 143.959 63.9983 152.552H115.953C115.078 144.436 113.884 124.466 119.295 100.756C120.965 93.4366 123.83 85.4803 127.728 77.2057C128.603 75.3758 130.752 74.6597 132.502 75.4554C134.332 76.3305 135.048 78.4788 134.252 80.2292C130.593 88.1059 127.887 95.5052 126.376 102.348C120.647 127.49 122.636 148.096 123.432 153.825C123.671 155.337 123.193 156.848 122.159 157.962C120.886 158.996 119.374 159.713 117.862 159.713Z" fill="#EB2D62"/>
<path id="Vector_5" d="M78.0803 141.97H78.0007C76.0116 141.89 74.4204 140.299 74.4999 138.31C74.7386 128.922 76.2503 115.396 82.2972 103.859C83.2519 102.109 85.4002 101.393 87.1506 102.347C88.901 103.302 89.617 105.45 88.6623 107.201C83.2519 117.464 81.8994 129.876 81.7402 138.469C81.6607 140.379 80.0694 141.97 78.0803 141.97Z" fill="#EB2D62"/>
<path id="Vector_6" d="M38.6184 66.9421C36.6293 66.9421 35.0381 65.3508 35.0381 63.3618V47.3694C35.0381 45.3803 36.6293 43.7891 38.6184 43.7891C40.6075 43.7891 42.1988 45.3803 42.1988 47.3694V63.3618C42.2784 65.3508 40.6075 66.9421 38.6184 66.9421Z" fill="#EB2D62"/>
</g>
<g id="_x33__32__3">
<path id="Vector_7" d="M117.862 159.713H61.8501C59.145 159.713 56.8377 157.564 56.599 154.859C56.042 147.539 54.9281 122 65.1918 101.393C72.6707 86.3555 84.0482 73.705 91.6862 66.1465H62.0093C61.691 66.1465 61.3727 66.3852 61.2136 66.7034L51.6661 84.446C50.3931 86.7533 48.0062 88.1854 45.4602 88.1854H27.0811C23.1825 88.1854 20 84.9234 20 80.9452V28.3541C20 26.0468 21.0343 23.8986 22.8643 22.546C24.6147 21.1934 26.8424 20.7956 28.9906 21.3526L41.7207 24.9329C47.4492 26.5242 53.496 26.365 59.0654 24.376C64.7939 22.3869 73.7846 20 84.5256 20C94.8688 20 103.223 22.3073 108.394 24.1373C114.043 26.2059 120.09 26.365 126.057 24.6942L139.822 20.7956C142.686 20 145.789 21.1139 147.539 23.5803L156.212 35.9921C158.042 38.6177 158.042 42.1981 156.053 44.7441C153.427 48.1653 148.176 55.1668 142.686 64.3166C141.652 65.9874 139.424 66.5443 137.753 65.51C136.082 64.4757 135.525 62.2479 136.56 60.5771C142.209 51.1887 147.619 43.8689 150.324 40.3681C150.324 40.2885 150.324 40.2885 150.324 40.209L141.652 27.8767L128.126 31.7753C120.727 33.9235 113.009 33.6848 106.008 31.0592C101.393 29.3884 93.914 27.3198 84.6051 27.3198C74.978 27.3198 66.783 29.468 61.6115 31.2979C54.6099 33.7644 47.131 34.0031 39.9703 31.9344L27.4789 28.4337V81.0248H45.6193L55.1668 63.3618C56.599 60.6567 59.3837 59.0654 62.3275 59.0654H96.46C98.6878 59.0654 100.677 60.418 101.472 62.4866C102.348 64.6348 101.791 67.0217 100.12 68.5334C94.471 73.7845 80.4679 87.7876 72.0342 104.735C63.2823 122.238 63.521 143.959 63.9983 152.552H115.953C115.078 144.436 113.884 124.466 119.295 100.756C120.965 93.4366 123.83 85.4803 127.728 77.2057C128.603 75.3758 130.752 74.6597 132.502 75.4554C134.332 76.3305 135.048 78.4788 134.252 80.2292C130.593 88.1059 127.887 95.5052 126.376 102.348C120.647 127.49 122.636 148.096 123.432 153.825C123.671 155.337 123.193 156.848 122.159 157.962C120.886 158.996 119.374 159.713 117.862 159.713Z" fill="#EB2D62"/>
<path id="Vector_8" d="M78.0803 141.97H78.0007C76.0116 141.89 74.4204 140.299 74.4999 138.31C74.7386 128.922 76.2503 115.396 82.2972 103.859C83.2519 102.109 85.4002 101.393 87.1506 102.347C88.901 103.302 89.617 105.45 88.6623 107.201C83.2519 117.464 81.8994 129.876 81.7402 138.469C81.6607 140.379 80.0694 141.97 78.0803 141.97Z" fill="#EB2D62"/>
<path id="Vector_9" d="M38.6184 66.9421C36.6293 66.9421 35.0381 65.3508 35.0381 63.3618V47.3694C35.0381 45.3803 36.6293 43.7891 38.6184 43.7891C40.6075 43.7891 42.1988 45.3803 42.1988 47.3694V63.3618C42.2784 65.3508 40.6075 66.9421 38.6184 66.9421Z" fill="#EB2D62"/>
</g>
<g id="_x32__6_">
<path id="Vector_10" d="M117.862 157.961H61.8497C59.9402 157.961 58.3489 156.449 58.1898 154.619C57.6329 147.379 56.5985 122.237 66.6235 102.028C75.0571 85.0811 88.4237 71.3167 95.7435 64.4743H62.0088C61.1336 64.4743 60.2584 65.0312 59.781 65.8268L50.2335 83.5694C49.2787 85.3993 47.4488 86.5132 45.4597 86.5132H27.0807C24.0573 86.5132 21.5908 83.9672 21.5908 80.8642V28.2731C21.5908 26.4432 22.3865 24.7723 23.8186 23.738C25.1712 22.7037 26.842 22.3855 28.5128 22.8628L41.2429 26.4432C47.2897 28.114 53.6547 27.9549 59.5424 25.8862C65.1118 23.8971 74.0228 21.5898 84.4456 21.5898C94.5501 21.5898 102.745 23.8176 107.758 25.6475C113.725 27.7957 120.169 28.0344 126.455 26.284L140.219 22.3855C142.447 21.749 144.754 22.6242 146.107 24.5337L154.779 36.9455C156.211 39.0141 156.211 41.7988 154.62 43.7879C151.995 47.2091 146.743 54.3698 141.174 63.5195C140.617 64.4742 139.424 64.7925 138.469 64.156C137.514 63.5991 137.196 62.4056 137.832 61.4509C143.481 52.142 148.812 44.9018 151.517 41.401C151.995 40.7645 151.995 39.9689 151.597 39.3324L142.924 26.9205C142.527 26.3636 141.97 26.1249 141.333 26.3636L127.569 30.2622C120.488 32.3308 113.168 32.0922 106.405 29.5461C101.631 27.7958 93.9931 25.7271 84.4456 25.7271C74.5798 25.7271 66.1461 27.9549 60.8949 29.7848C54.2117 32.1717 47.051 32.3308 40.2086 30.4213L27.4785 26.841C26.9216 26.6819 26.4442 26.9206 26.285 27.0797C25.8872 27.3979 25.6485 27.8753 25.6485 28.4322V81.0233C25.6485 81.9781 26.285 82.6942 27.1602 82.6942H45.5393C46.0962 82.6942 46.5736 82.3759 46.8123 81.8985L56.3599 64.156C57.4737 62.0078 59.7015 60.6553 62.0884 60.6553H96.2209C97.7326 60.6553 99.1647 61.61 99.7216 63.0421C100.279 64.5538 99.9604 66.2247 98.7669 67.3385C91.6858 73.9423 78.5579 87.468 70.2834 103.937C60.8154 122.953 61.6906 146.742 62.2475 154.142H117.544C116.748 147.697 114.839 126.613 120.647 101.073C122.318 93.833 125.102 86.0358 128.921 77.8408C129.399 76.8065 130.592 76.4087 131.547 76.8861C132.502 77.3634 132.979 78.5569 132.502 79.5117C128.762 87.468 126.057 95.0264 124.466 101.948C118.658 127.409 120.726 148.254 121.442 153.983C121.601 155.017 121.283 156.051 120.567 156.847C119.931 157.483 118.976 157.961 117.862 157.961Z" fill="#FF7E82"/>
<path id="Vector_11" d="M78.0799 140.217C76.966 140.217 76.0908 139.262 76.0908 138.148C76.3295 128.919 77.7616 115.632 83.6493 104.413C84.1267 103.459 85.3997 103.061 86.3545 103.538C87.3093 104.016 87.7071 105.289 87.2297 106.243C81.6603 116.825 80.3077 129.476 80.069 138.228C80.069 139.342 79.1142 140.217 78.0799 140.217Z" fill="#FF7E82"/>
<path id="Vector_12" d="M38.618 65.1893C37.5041 65.1893 36.6289 64.3141 36.6289 63.2002V47.2078C36.6289 46.094 37.5041 45.2188 38.618 45.2188C39.7319 45.2188 40.6071 46.094 40.6071 47.2078V63.2002C40.6071 64.3141 39.7319 65.1893 38.618 65.1893Z" fill="#FF7E82"/>
</g>
<g id="_x31__7_">
<path id="Vector_13" d="M117.863 156.29H61.8506C60.6572 156.29 59.5433 155.335 59.4637 154.142C58.9068 146.981 57.8725 122.078 67.8178 102.187C76.2515 85.3196 89.6181 71.4756 96.8583 64.7923C97.2561 64.3945 97.2561 63.8376 97.1766 63.5193C97.097 63.3602 96.8583 62.8033 96.2218 62.8033H62.0893C60.7367 62.8033 59.4637 63.5989 58.7477 64.8719L49.2001 82.6144C48.484 83.967 47.0519 84.8422 45.5402 84.8422H27.1612C24.8538 84.8422 22.9443 82.8531 22.9443 80.4662V27.8751C22.9443 26.443 23.5808 25.17 24.6947 24.3744C25.729 23.5787 27.002 23.34 28.275 23.6583L41.0051 27.2386C47.3702 28.989 53.8943 28.8299 60.1002 26.6817C65.5901 24.7722 74.2624 22.4648 84.6056 22.4648C94.551 22.4648 102.507 24.613 107.52 26.443C113.726 28.7503 120.489 28.9095 127.013 27.0795L140.777 23.1809C142.448 22.7035 144.278 23.3401 145.312 24.8518L153.984 37.2636C155.098 38.8548 155.098 41.003 153.905 42.5943C151.279 46.0155 145.949 53.1761 140.379 62.4054C140.141 62.7237 139.743 62.8829 139.424 62.6442C139.106 62.4055 138.947 62.0076 139.186 61.6894C144.755 52.3805 150.086 45.2199 152.791 41.7191C153.587 40.6848 153.666 39.1731 152.871 38.1388L144.198 25.7269C143.482 24.7722 142.368 24.2948 141.254 24.613L127.49 28.5116C120.648 30.5007 113.646 30.262 107.122 27.8751C102.269 26.1247 94.4714 23.9766 84.6852 23.9766C74.5807 23.9766 66.0674 26.2043 60.6572 28.1138C54.2126 30.3416 47.3702 30.5803 40.6869 28.7503L27.9568 25.17C27.1612 24.9313 26.286 25.0904 25.6495 25.6474C24.9334 26.2043 24.456 27.0795 24.456 28.0343V80.6254C24.456 82.2166 25.729 83.5692 27.2407 83.5692H45.6198C46.5745 83.5692 47.5293 83.0123 48.0066 82.0575L57.5542 64.315C58.509 62.5646 60.2594 61.5303 62.1689 61.5303H96.3014C97.3357 61.5303 98.2109 62.1668 98.6087 63.1215C99.0065 64.1558 98.7678 65.2697 97.9722 65.9858C90.8115 72.6691 77.6041 86.2744 69.25 102.983C59.4637 122.555 60.498 147.14 61.055 154.142C61.055 154.619 61.4528 155.017 62.0097 155.017H118.022C118.261 155.017 118.579 154.937 118.738 154.699C118.897 154.46 118.977 154.221 118.977 153.982C118.181 148.095 116.113 126.851 122 100.993C123.591 93.8328 126.376 86.1152 130.195 77.9998C130.354 77.602 130.832 77.4429 131.15 77.6816C131.548 77.8407 131.627 78.3181 131.468 78.6363C127.649 86.6722 124.944 94.3102 123.353 101.312C117.465 126.931 119.534 148.015 120.329 153.823C120.409 154.539 120.25 155.176 119.772 155.733C119.215 156.051 118.579 156.29 117.863 156.29Z" fill="#FFABA6"/>
<path id="Vector_14" d="M78.0813 138.626C77.6835 138.626 77.3652 138.308 77.3652 137.91C77.6039 128.84 79.0361 115.712 84.8442 104.732C85.0033 104.414 85.4807 104.255 85.799 104.414C86.1172 104.573 86.2764 105.05 86.1172 105.369C80.4682 116.11 79.0361 128.999 78.7974 137.91C78.7974 138.308 78.4791 138.626 78.0813 138.626Z" fill="#FFABA6"/>
<path id="Vector_15" d="M38.6184 63.6002C38.2206 63.6002 37.9023 63.282 37.9023 62.8842V46.8919C37.9023 46.494 38.2206 46.1758 38.6184 46.1758C39.0162 46.1758 39.3345 46.494 39.3345 46.8919V62.8842C39.3345 63.282 39.0162 63.6002 38.6184 63.6002Z" fill="#FFABA6"/>
</g>
</g>
<defs>
<filter id="filter0_f_0_3075" x="0" y="0" width="177.565" height="179.713" filterUnits="userSpaceOnUse" color-interpolation-filters="sRGB">
<feFlood flood-opacity="0" result="BackgroundImageFix"/>
<feBlend mode="normal" in="SourceGraphic" in2="BackgroundImageFix" result="shape"/>
<feGaussianBlur stdDeviation="10" result="effect1_foregroundBlur_0_3075"/>
</filter>
<filter id="filter1_f_0_3075" x="10" y="10" width="157.565" height="159.713" filterUnits="userSpaceOnUse" color-interpolation-filters="sRGB">
<feFlood flood-opacity="0" result="BackgroundImageFix"/>
<feBlend mode="normal" in="SourceGraphic" in2="BackgroundImageFix" result="shape"/>
<feGaussianBlur stdDeviation="5" result="effect1_foregroundBlur_0_3075"/>
</filter>
</defs>
</svg>
