<svg width="109" height="109" viewBox="0 0 109 109" fill="none" xmlns="http://www.w3.org/2000/svg">
<g id="wheel-of-fortune 1">
<path id="Vector" d="M94.3394 45.0637C90.8203 29.6511 78.2292 16.7097 61.0321 13.9364L64.8471 6.55553C65.0963 6.07282 65.0807 5.49668 64.7848 5.02953C64.5046 4.56239 64.0063 4.2821 63.4613 4.2821H45.5386C44.9936 4.2821 44.4953 4.56239 44.215 5.02953C43.9191 5.49668 43.9036 6.07282 44.1527 6.55553L47.9677 13.9364C28.0752 17.1192 13.6016 34.2836 13.6016 54.2664C13.6016 69.5778 22.088 83.1794 35.0746 90.2364L29.7024 101.604H18.273C17.4166 101.604 16.7158 102.304 16.7158 103.161C16.7158 104.017 17.4166 104.718 18.273 104.718H90.7268C91.5833 104.718 92.284 104.017 92.284 103.161C92.284 102.304 91.5833 101.604 90.7268 101.604H79.2974L73.9253 90.2364C87.0286 83.1125 95.3983 69.447 95.3983 54.2664C95.3983 49.5623 94.5995 46.5694 94.3394 45.0637ZM76.7157 26.965C76.9586 27.2699 77.1391 27.6196 77.2469 27.9943C77.3546 28.3689 77.3875 28.7611 77.3437 29.1485C77.2999 29.5359 77.1802 29.9108 76.9915 30.2519C76.8028 30.5931 76.5488 30.8937 76.2439 31.1366C75.939 31.3795 75.5892 31.56 75.2146 31.6678C74.8399 31.7755 74.4477 31.8085 74.0604 31.7646C73.673 31.7208 73.298 31.6012 72.9569 31.4124C72.6158 31.2237 72.3152 30.9697 72.0723 30.6648C69.626 27.5972 74.2647 23.8928 76.7157 26.965ZM62.6889 19.9983C63.0399 20.1675 63.3542 20.404 63.6138 20.6946C63.8733 20.9852 64.0731 21.324 64.2017 21.6918C64.3304 22.0596 64.3853 22.4491 64.3634 22.8381C64.3414 23.2271 64.2431 23.6079 64.074 23.9589C63.9049 24.3099 63.6683 24.6242 63.3778 24.8838C63.0872 25.1433 62.7483 25.3431 62.3806 25.4717C62.0128 25.6004 61.6233 25.6553 61.2343 25.6334C60.8453 25.6115 60.4644 25.5131 60.1134 25.344C59.7624 25.1749 59.4482 24.9383 59.1886 24.6478C58.929 24.3572 58.7292 24.0184 58.6006 23.6506C58.472 23.2828 58.4171 22.8933 58.439 22.5043C58.4609 22.1153 58.5592 21.7344 58.7283 21.3834C58.8974 21.0324 59.134 20.7182 59.4246 20.4586C59.7152 20.199 60.054 19.9992 60.4218 19.8706C60.7896 19.742 61.1791 19.6871 61.5681 19.709C61.9571 19.7309 62.3379 19.8292 62.6889 19.9983ZM60.9076 7.39639L54.4921 19.7912L48.0923 7.39639H60.9076ZM47.0287 19.9392C47.4185 19.9391 47.8045 20.0157 48.1646 20.1648C48.5247 20.3139 48.8519 20.5324 49.1276 20.8079C49.4033 21.0834 49.622 21.4106 49.7712 21.7706C49.9205 22.1306 49.9973 22.5166 49.9974 22.9063C49.9975 23.2961 49.9209 23.682 49.7718 24.0421C49.6228 24.4023 49.4042 24.7295 49.1287 25.0052C48.8532 25.2808 48.5261 25.4995 48.166 25.6488C47.806 25.798 47.4201 25.8749 47.0303 25.875C46.2432 25.875 45.4883 25.5623 44.9317 25.0057C44.3751 24.4491 44.0624 23.6942 44.0624 22.9071C44.0624 22.12 44.3751 21.365 44.9317 20.8085C45.4883 20.2519 46.2432 19.9392 47.0303 19.9392H47.0287ZM32.8946 26.5415C33.2469 26.3639 33.631 26.2584 34.0245 26.231C34.4181 26.2036 34.8131 26.2549 35.1866 26.3818C35.5601 26.5088 35.9045 26.7089 36.1998 26.9705C36.4951 27.2321 36.7353 27.5499 36.9065 27.9053C37.0776 28.2608 37.1761 28.6467 37.1964 29.0407C37.2167 29.4347 37.1582 29.8287 37.0245 30.1999C36.8908 30.571 36.6844 30.9118 36.4176 31.2023C36.1507 31.4928 35.8286 31.7272 35.4701 31.8918C34.7629 32.2166 33.9564 32.2507 33.2243 31.9869C32.4921 31.7231 31.8928 31.1825 31.5552 30.4812C31.2177 29.78 31.1689 28.9743 31.4194 28.2375C31.6699 27.5007 32.1996 26.8917 32.8946 26.5415ZM23.0254 38.6218C23.5266 38.0397 24.2339 37.6746 24.9986 37.603C25.7634 37.5313 26.5261 37.7589 27.1267 38.2377C27.7273 38.7165 28.1189 39.4095 28.2194 40.171C28.3199 40.9325 28.1215 41.7033 27.6657 42.3215C27.1645 42.9036 26.4572 43.2687 25.6924 43.3404C24.9277 43.412 24.1649 43.1845 23.5644 42.7056C22.9638 42.2268 22.5721 41.5338 22.4716 40.7724C22.3711 40.0109 22.5696 39.24 23.0254 38.6218ZM21.6099 57.3386C21.2237 57.2583 20.8573 57.1018 20.5323 56.8782C20.2073 56.6546 19.93 56.3685 19.7169 56.0365C19.5037 55.7046 19.3589 55.3334 19.2908 54.9448C19.2228 54.5562 19.2329 54.158 19.3205 53.7733C19.4082 53.3887 19.5717 53.0254 19.8014 52.7046C20.0312 52.3839 20.3225 52.1122 20.6585 51.9054C20.9945 51.6986 21.3683 51.5609 21.7581 51.5002C22.1479 51.4396 22.5459 51.4573 22.9288 51.5523C23.6761 51.7461 24.3184 52.2234 24.7195 52.8829C25.1207 53.5424 25.2491 54.3323 25.0775 55.0849C24.9059 55.8375 24.4478 56.4937 23.8004 56.9142C23.1531 57.3346 22.3673 57.4863 21.6099 57.3371V57.3386ZM26.2269 71.261C25.8428 71.3593 25.443 71.3796 25.051 71.3209C24.6589 71.2621 24.2826 71.1254 23.9442 70.9189C23.6059 70.7124 23.3123 70.4403 23.0807 70.1185C22.8492 69.7967 22.6844 69.4319 22.5962 69.0454C22.5079 68.6589 22.4979 68.2587 22.5668 67.8683C22.6356 67.478 22.782 67.1053 22.9971 66.7724C23.2123 66.4394 23.492 66.153 23.8196 65.9298C24.1472 65.7067 24.5163 65.5514 24.9049 65.4731C25.6639 65.3203 26.4526 65.4699 27.1029 65.8902C27.7532 66.3105 28.2136 66.9681 28.386 67.723C28.5584 68.4778 28.4292 69.2701 28.0259 69.931C27.6225 70.5919 26.977 71.0692 26.2269 71.261ZM32.2577 81.3342C31.7669 80.7189 31.5406 79.9337 31.6286 79.1516C31.7167 78.3694 32.1118 77.6542 32.7272 77.1634C33.3425 76.6726 34.1276 76.4463 34.9098 76.5343C35.692 76.6224 36.4071 77.0175 36.898 77.6329C37.3888 78.2482 37.6151 79.0333 37.527 79.8155C37.439 80.5977 37.0438 81.3129 36.4285 81.8037C35.8132 82.2945 35.028 82.5208 34.2459 82.4327C33.4637 82.3447 32.7485 81.9495 32.2577 81.3342ZM75.8561 101.604H33.1437L37.8618 91.6067C43.0783 93.9268 48.6373 95.1258 54.4299 95.1414H54.4921C60.3003 95.1414 65.8904 93.9424 71.1224 91.6067L75.8561 101.604ZM44.8488 84.3021C45.0135 83.9435 45.248 83.6214 45.5387 83.3545C45.8293 83.0876 46.1702 82.8813 46.5415 82.7477C46.9128 82.614 47.307 82.5557 47.7011 82.5762C48.0952 82.5966 48.4812 82.6954 48.8367 82.8668C49.1921 83.0382 49.5099 83.2787 49.7713 83.5742C50.0328 83.8698 50.2327 84.2145 50.3594 84.5882C50.4861 84.9619 50.537 85.3571 50.5092 85.7508C50.4814 86.1444 50.3755 86.5285 50.1975 86.8807C49.8467 87.5751 49.2374 88.1041 48.5006 88.3539C47.7638 88.6037 46.9584 88.5544 46.2576 88.2165C45.5568 87.8787 45.0166 87.2793 44.7531 86.5473C44.4897 85.8153 44.524 85.0091 44.8488 84.3021ZM58.8677 85.6132C58.8677 84.8261 59.1804 84.0712 59.737 83.5146C60.2936 82.958 61.0485 82.6453 61.8356 82.6453C62.6228 82.6453 63.3777 82.958 63.9343 83.5146C64.4908 84.0712 64.8035 84.8261 64.8035 85.6132C64.8035 86.4004 64.4908 87.1553 63.9343 87.7119C63.3777 88.2685 62.6228 88.5811 61.8356 88.5811C61.0485 88.5811 60.2936 88.2685 59.737 87.7119C59.1804 87.1553 58.8677 86.4004 58.8677 85.6132ZM76.0305 81.9633C75.6782 82.1408 75.2941 82.2464 74.9006 82.2738C74.507 82.3012 74.112 82.2499 73.7385 82.1229C73.365 81.996 73.0205 81.7958 72.7253 81.5343C72.43 81.2727 72.1897 80.9549 72.0186 80.5994C71.8475 80.244 71.749 79.858 71.7287 79.4641C71.7084 79.0701 71.7669 78.676 71.9006 78.3049C72.0343 77.9338 72.2406 77.593 72.5075 77.3025C72.7744 77.012 73.0965 76.7776 73.455 76.6129C74.1622 76.2882 74.9687 76.254 75.7008 76.5178C76.433 76.7816 77.0323 77.3223 77.3699 78.0235C77.7074 78.7247 77.7562 79.5304 77.5057 80.2672C77.2552 81.0041 76.7255 81.6131 76.0305 81.9633ZM78.1296 59.5918C75.8686 69.9484 66.4307 78.48 54.4299 78.48C40.8952 78.4223 30.263 67.3838 30.263 54.2664C30.263 41.0276 40.9497 30.0933 54.4921 30.0372C67.9209 30.0372 78.7368 40.9995 78.7368 54.2664C78.7368 56.0727 78.5344 57.8634 78.1296 59.5918ZM82.7714 37.0911C83.535 36.9258 84.333 37.0682 84.9922 37.4875C85.6515 37.9068 86.1188 38.5691 86.2928 39.3308C86.4668 40.0924 86.3335 40.892 85.9217 41.5559C85.51 42.2199 84.853 42.6948 84.0934 42.8774C80.2675 43.7494 78.9393 37.9662 82.7714 37.0911ZM85.948 69.8456C85.4483 70.4329 84.7398 70.8029 83.9723 70.8772C83.2047 70.9514 82.4384 70.7242 81.8354 70.2436C81.2324 69.763 80.84 69.0666 80.7412 68.3019C80.6424 67.5371 80.845 66.7639 81.3061 66.1458C81.8074 65.5638 82.5146 65.1986 83.2794 65.127C84.0441 65.0554 84.8069 65.2829 85.4074 65.7617C86.008 66.2406 86.3997 66.9335 86.5002 67.695C86.6007 68.4565 86.4022 69.2273 85.9464 69.8456H85.948ZM89.6228 54.6292C89.4473 55.3969 88.974 56.0635 88.307 56.4823C87.6401 56.901 86.834 57.0377 86.0663 56.8621C85.2986 56.6866 84.632 56.2133 84.2133 55.5463C83.7945 54.8794 83.6579 54.0734 83.8334 53.3056C84.0089 52.5381 84.4821 51.8717 85.1489 51.4531C85.8158 51.0345 86.6216 50.898 87.3891 51.0735C88.1566 51.249 88.823 51.7222 89.2416 52.389C89.6602 53.0559 89.7968 53.8617 89.6213 54.6292H89.6228Z" fill="#E9DB38"/>
<path id="Vector_2" d="M54.4998 37.239L50.2738 50.2412H36.6021L47.664 58.2776L43.4379 71.2797L54.4998 63.2433L65.5602 71.2797L61.3357 58.2776L72.3961 50.2412H58.7244L54.4998 37.239Z" fill="#E9DB38"/>
</g>
</svg>
