<svg width="114" height="112" viewBox="0 0 114 112" fill="none" xmlns="http://www.w3.org/2000/svg">
<g filter="url(#filter0_f_0_1004)">
<path d="M48.125 67.9075C52.0166 75.4023 53.9623 79.1497 57 79.1497C60.0377 79.1497 61.9834 75.4023 65.875 67.9075L76.415 47.6082C79.8074 41.0746 81.5037 37.8078 80.0432 35.4039C78.5828 33 74.9019 33 67.54 33H46.46C39.0981 33 35.4172 33 33.9568 35.4039C32.4963 37.8078 34.1926 41.0746 37.585 47.6082L48.125 67.9075Z" stroke="#B03BC5" stroke-width="5"/>
</g>
<g filter="url(#filter1_f_0_1004)">
<path d="M48.125 67.9075C52.0166 75.4023 53.9623 79.1497 57 79.1497C60.0377 79.1497 61.9834 75.4023 65.875 67.9075L76.415 47.6082C79.8074 41.0746 81.5037 37.8078 80.0432 35.4039C78.5828 33 74.9019 33 67.54 33H46.46C39.0981 33 35.4172 33 33.9568 35.4039C32.4963 37.8078 34.1926 41.0746 37.585 47.6082L48.125 67.9075Z" stroke="#B03BC5" stroke-width="5"/>
</g>
<path d="M48.125 67.9075C52.0166 75.4023 53.9623 79.1497 57 79.1497C60.0377 79.1497 61.9834 75.4023 65.875 67.9075L76.415 47.6082C79.8074 41.0746 81.5037 37.8078 80.0432 35.4039C78.5828 33 74.9019 33 67.54 33H46.46C39.0981 33 35.4172 33 33.9568 35.4039C32.4963 37.8078 34.1926 41.0746 37.585 47.6082L48.125 67.9075Z" stroke="#B03BC5" stroke-width="5"/>
<path d="M48.125 67.9075C52.0166 75.4023 53.9623 79.1497 57 79.1497C60.0377 79.1497 61.9834 75.4023 65.875 67.9075L76.415 47.6082C79.8074 41.0746 81.5037 37.8078 80.0432 35.4039C78.5828 33 74.9019 33 67.54 33H46.46C39.0981 33 35.4172 33 33.9568 35.4039C32.4963 37.8078 34.1926 41.0746 37.585 47.6082L48.125 67.9075Z" stroke="#EC7FF3" stroke-width="3"/>
<path d="M48.125 67.9075C52.0166 75.4023 53.9623 79.1497 57 79.1497C60.0377 79.1497 61.9834 75.4023 65.875 67.9075L76.415 47.6082C79.8074 41.0746 81.5037 37.8078 80.0432 35.4039C78.5828 33 74.9019 33 67.54 33H46.46C39.0981 33 35.4172 33 33.9568 35.4039C32.4963 37.8078 34.1926 41.0746 37.585 47.6082L48.125 67.9075Z" stroke="#FFB5E5"/>
<defs>
<filter id="filter0_f_0_1004" x="0.930176" y="0.5" width="112.14" height="111.15" filterUnits="userSpaceOnUse" color-interpolation-filters="sRGB">
<feFlood flood-opacity="0" result="BackgroundImageFix"/>
<feBlend mode="normal" in="SourceGraphic" in2="BackgroundImageFix" result="shape"/>
<feGaussianBlur stdDeviation="15" result="effect1_foregroundBlur_0_1004"/>
</filter>
<filter id="filter1_f_0_1004" x="15.9302" y="15.5" width="82.1396" height="81.1497" filterUnits="userSpaceOnUse" color-interpolation-filters="sRGB">
<feFlood flood-opacity="0" result="BackgroundImageFix"/>
<feBlend mode="normal" in="SourceGraphic" in2="BackgroundImageFix" result="shape"/>
<feGaussianBlur stdDeviation="7.5" result="effect1_foregroundBlur_0_1004"/>
</filter>
</defs>
</svg>
