<svg width="38" height="38" viewBox="0 0 38 38" fill="none" xmlns="http://www.w3.org/2000/svg">
<g id="akar-icons:arrow-left">
<g id="Group">
<path id="Vector (Stroke)" fill-rule="evenodd" clip-rule="evenodd" d="M18.5363 6.79724C19.1546 7.41557 19.1546 8.41809 18.5363 9.03642L8.5725 19.0002L18.5363 28.9639C19.1546 29.5822 19.1546 30.5848 18.5363 31.2031C17.9179 31.8214 16.9154 31.8214 16.2971 31.2031L5.21375 20.1197C4.59542 19.5014 4.59542 18.4989 5.21375 17.8806L16.2971 6.79724C16.9154 6.17891 17.9179 6.17891 18.5363 6.79724Z" fill="url(#paint0_linear_1_826)"/>
<path id="Vector (Stroke)_2" fill-rule="evenodd" clip-rule="evenodd" d="M4.75 19.0003C4.75 18.1259 5.45888 17.417 6.33333 17.417H31.6667C32.5411 17.417 33.25 18.1259 33.25 19.0003C33.25 19.8748 32.5411 20.5837 31.6667 20.5837H6.33333C5.45888 20.5837 4.75 19.8748 4.75 19.0003Z" fill="url(#paint1_linear_1_826)"/>
</g>
</g>
<defs>
<linearGradient id="paint0_linear_1_826" x1="4.75" y1="31.6668" x2="26.3999" y2="19.4888" gradientUnits="userSpaceOnUse">
<stop stop-color="#FF7D7D"/>
<stop offset="1" stop-color="#834040"/>
</linearGradient>
<linearGradient id="paint1_linear_1_826" x1="4.75" y1="20.5837" x2="5.44512" y2="14.3276" gradientUnits="userSpaceOnUse">
<stop stop-color="#FF7D7D"/>
<stop offset="1" stop-color="#834040"/>
</linearGradient>
</defs>
</svg>
