<svg width="52" height="52" viewBox="0 0 52 52" fill="none" xmlns="http://www.w3.org/2000/svg">
<g id="bi:plus">
<g id="Group">
<path id="Vector" d="M26 13C26.431 13 26.8443 13.1712 27.149 13.476C27.4538 13.7807 27.625 14.194 27.625 14.625V24.375H37.375C37.806 24.375 38.2193 24.5462 38.524 24.851C38.8288 25.1557 39 25.569 39 26C39 26.431 38.8288 26.8443 38.524 27.149C38.2193 27.4538 37.806 27.625 37.375 27.625H27.625V37.375C27.625 37.806 27.4538 38.2193 27.149 38.524C26.8443 38.8288 26.431 39 26 39C25.569 39 25.1557 38.8288 24.851 38.524C24.5462 38.2193 24.375 37.806 24.375 37.375V27.625H14.625C14.194 27.625 13.7807 27.4538 13.476 27.149C13.1712 26.8443 13 26.431 13 26C13 25.569 13.1712 25.1557 13.476 24.851C13.7807 24.5462 14.194 24.375 14.625 24.375H24.375V14.625C24.375 14.194 24.5462 13.7807 24.851 13.476C25.1557 13.1712 25.569 13 26 13Z" fill="white"/>
</g>
</g>
</svg>
