<svg width="172" height="180" viewBox="0 0 172 180" fill="none" xmlns="http://www.w3.org/2000/svg">
<g id="icon_4_">
<g id="_x33__20_" filter="url(#filter0_f_0_3126)">
<path id="Vector" d="M117.067 159.707C97.8921 159.707 82.2977 144.113 82.2977 124.938C82.2977 118.335 84.1277 111.97 87.5489 106.559C91.3679 100.513 97.6534 97.0117 104.734 97.0117C110.463 97.0117 114.759 99.7964 117.146 101.308C119.772 99.7169 124.625 96.6935 131.149 97.0913C141.174 97.6482 146.664 106.48 148.096 109.185C150.563 113.799 151.915 119.289 151.915 124.938C151.915 129.314 151.12 133.611 149.528 137.668C148.812 139.498 146.664 140.453 144.834 139.737C143.004 139.021 142.05 136.873 142.766 135.043C144.039 131.86 144.675 128.439 144.675 125.018C144.675 120.483 143.641 116.186 141.731 112.606C139.663 108.787 135.685 104.57 130.752 104.331C126.455 104.093 123.114 106.161 120.886 107.514C119.454 108.389 118.419 109.026 117.067 109.026C115.635 109.026 114.6 108.389 113.248 107.435C111.259 106.161 108.315 104.331 104.734 104.331C98.5286 104.331 95.1074 108.23 93.6752 110.537C90.9701 114.834 89.5379 119.846 89.5379 125.018C89.5379 140.214 101.87 152.547 117.067 152.547C123.909 152.547 130.433 150.08 135.446 145.466C136.957 144.113 139.185 144.272 140.538 145.704C141.89 147.216 141.731 149.444 140.299 150.796C133.934 156.525 125.66 159.707 117.067 159.707ZM54.769 159.707C35.5943 159.707 20 144.113 20 124.938C20 118.335 21.8299 111.97 25.2511 106.559C29.0701 100.513 35.3556 97.0117 42.4367 97.0117C48.1652 97.0117 52.4616 99.7964 54.8485 101.308C57.4741 99.7169 62.3275 96.6935 68.8516 97.0913C71.7955 97.2504 74.5802 98.2052 77.2853 99.7964C78.9561 100.831 79.513 103.059 78.4787 104.809C77.4444 106.48 75.2166 107.037 73.4662 106.002C71.8749 104.968 70.2042 104.411 68.4538 104.331C64.1574 104.093 60.8157 106.161 58.588 107.514C57.1558 108.389 56.1215 109.026 54.769 109.026C53.3368 109.026 52.3026 108.389 50.95 107.435C48.9609 106.161 46.017 104.331 42.4367 104.331C36.2308 104.331 32.8096 108.23 31.3774 110.537C28.6723 114.834 27.2401 119.846 27.2401 125.018C27.2401 140.214 39.5724 152.547 54.769 152.547C61.7705 152.547 68.4538 149.921 73.5458 145.147C74.978 143.795 77.2853 143.874 78.6379 145.306C79.9904 146.739 79.9108 149.046 78.4787 150.398C72.0341 156.366 63.6005 159.707 54.769 159.707ZM101.472 135.998C100.12 135.998 98.7672 135.202 98.2103 133.849C97.0964 131.463 96.5395 128.837 96.5395 126.211C96.5395 122.711 97.4942 119.369 99.3242 116.505C100.358 114.834 102.666 114.277 104.337 115.391C106.007 116.425 106.485 118.732 105.451 120.403C104.337 122.154 103.78 124.143 103.78 126.291C103.78 127.882 104.098 129.473 104.814 130.906C105.61 132.736 104.814 134.884 103.064 135.679C102.507 135.918 101.95 135.998 101.472 135.998ZM38.4585 135.998C37.106 135.998 35.7534 135.202 35.1964 133.849C34.0826 131.463 33.5257 128.837 33.5257 126.211C33.5257 122.711 34.4804 119.369 36.3103 116.505C37.3446 114.834 39.652 114.277 41.3228 115.391C42.9936 116.425 43.471 118.732 42.4367 120.403C41.3228 122.154 40.7659 124.143 40.7659 126.291C40.7659 127.882 41.0841 129.473 41.8002 130.906C42.5958 132.736 41.8002 134.884 40.0498 135.679C39.4133 135.918 38.9359 135.998 38.4585 135.998Z" fill="#EB2D62"/>
<path id="Vector_2" d="M117.067 93.7519C115.476 93.7519 114.044 92.7176 113.567 91.0467L101.552 46.2524C97.9721 53.0949 91.1295 61.2103 77.6037 66.9389C52.5411 77.6005 26.3647 77.2026 25.2508 77.2026C24.1369 77.2026 23.023 76.6457 22.3865 75.6909C21.75 74.7362 21.5909 73.5427 21.9091 72.4288C22.0683 72.031 25.0917 63.0403 31.5364 52.6174C40.2088 38.6142 50.8703 28.8279 62.407 24.3724C81.0249 17.1321 92.0843 21.0307 92.5617 21.1898C94.4713 21.9059 95.426 23.9745 94.71 25.8045C93.9939 27.714 91.9252 28.6688 90.0953 27.9527C90.0157 27.9527 80.8658 24.9293 65.0326 31.0557C52.382 35.9886 43.2322 47.4458 37.8219 56.1978C34.5598 61.449 32.2524 66.3024 30.7407 69.8032C39.4927 69.4054 57.6332 67.5755 74.7394 60.2556C98.0516 50.3101 97.972 32.8061 97.972 32.647C97.972 30.817 99.245 29.2258 101.075 28.9871C102.905 28.7484 104.576 29.8622 105.053 31.6126L120.409 89.0576C120.886 90.9671 119.772 92.9563 117.863 93.5132C117.704 93.7519 117.386 93.7519 117.067 93.7519ZM56.9172 93.5132C56.4398 93.5132 55.8829 93.4337 55.4055 93.195C53.5755 92.3993 52.7798 90.2511 53.5754 88.4211L57.2354 80.3056C58.0311 78.4757 60.1793 77.68 62.0093 78.4756C63.8393 79.2713 64.6349 81.4195 63.8392 83.2495L60.1792 91.365C59.5427 92.7176 58.2698 93.5132 56.9172 93.5132Z" fill="#43C400"/>
</g>
<g id="_x33__20__2" filter="url(#filter1_f_0_3126)">
<path id="Vector_3" d="M117.067 159.707C97.8921 159.707 82.2977 144.113 82.2977 124.938C82.2977 118.335 84.1277 111.97 87.5489 106.559C91.3679 100.513 97.6534 97.0117 104.734 97.0117C110.463 97.0117 114.759 99.7964 117.146 101.308C119.772 99.7169 124.625 96.6935 131.149 97.0913C141.174 97.6482 146.664 106.48 148.096 109.185C150.563 113.799 151.915 119.289 151.915 124.938C151.915 129.314 151.12 133.611 149.528 137.668C148.812 139.498 146.664 140.453 144.834 139.737C143.004 139.021 142.05 136.873 142.766 135.043C144.039 131.86 144.675 128.439 144.675 125.018C144.675 120.483 143.641 116.186 141.731 112.606C139.663 108.787 135.685 104.57 130.752 104.331C126.455 104.093 123.114 106.161 120.886 107.514C119.454 108.389 118.419 109.026 117.067 109.026C115.635 109.026 114.6 108.389 113.248 107.435C111.259 106.161 108.315 104.331 104.734 104.331C98.5286 104.331 95.1074 108.23 93.6752 110.537C90.9701 114.834 89.5379 119.846 89.5379 125.018C89.5379 140.214 101.87 152.547 117.067 152.547C123.909 152.547 130.433 150.08 135.446 145.466C136.957 144.113 139.185 144.272 140.538 145.704C141.89 147.216 141.731 149.444 140.299 150.796C133.934 156.525 125.66 159.707 117.067 159.707ZM54.769 159.707C35.5943 159.707 20 144.113 20 124.938C20 118.335 21.8299 111.97 25.2511 106.559C29.0701 100.513 35.3556 97.0117 42.4367 97.0117C48.1652 97.0117 52.4616 99.7964 54.8485 101.308C57.4741 99.7169 62.3275 96.6935 68.8516 97.0913C71.7955 97.2504 74.5802 98.2052 77.2853 99.7964C78.9561 100.831 79.513 103.059 78.4787 104.809C77.4444 106.48 75.2166 107.037 73.4662 106.002C71.8749 104.968 70.2042 104.411 68.4538 104.331C64.1574 104.093 60.8157 106.161 58.588 107.514C57.1558 108.389 56.1215 109.026 54.769 109.026C53.3368 109.026 52.3026 108.389 50.95 107.435C48.9609 106.161 46.017 104.331 42.4367 104.331C36.2308 104.331 32.8096 108.23 31.3774 110.537C28.6723 114.834 27.2401 119.846 27.2401 125.018C27.2401 140.214 39.5724 152.547 54.769 152.547C61.7705 152.547 68.4538 149.921 73.5458 145.147C74.978 143.795 77.2853 143.874 78.6379 145.306C79.9904 146.739 79.9108 149.046 78.4787 150.398C72.0341 156.366 63.6005 159.707 54.769 159.707ZM101.472 135.998C100.12 135.998 98.7672 135.202 98.2103 133.849C97.0964 131.463 96.5395 128.837 96.5395 126.211C96.5395 122.711 97.4942 119.369 99.3242 116.505C100.358 114.834 102.666 114.277 104.337 115.391C106.007 116.425 106.485 118.732 105.451 120.403C104.337 122.154 103.78 124.143 103.78 126.291C103.78 127.882 104.098 129.473 104.814 130.906C105.61 132.736 104.814 134.884 103.064 135.679C102.507 135.918 101.95 135.998 101.472 135.998ZM38.4585 135.998C37.106 135.998 35.7534 135.202 35.1964 133.849C34.0826 131.463 33.5257 128.837 33.5257 126.211C33.5257 122.711 34.4804 119.369 36.3103 116.505C37.3446 114.834 39.652 114.277 41.3228 115.391C42.9936 116.425 43.471 118.732 42.4367 120.403C41.3228 122.154 40.7659 124.143 40.7659 126.291C40.7659 127.882 41.0841 129.473 41.8002 130.906C42.5958 132.736 41.8002 134.884 40.0498 135.679C39.4133 135.918 38.9359 135.998 38.4585 135.998Z" fill="#EB2D62"/>
<path id="Vector_4" d="M117.067 93.7519C115.476 93.7519 114.044 92.7176 113.567 91.0467L101.552 46.2524C97.9721 53.0949 91.1295 61.2103 77.6037 66.9389C52.5411 77.6005 26.3647 77.2026 25.2508 77.2026C24.1369 77.2026 23.023 76.6457 22.3865 75.6909C21.75 74.7362 21.5909 73.5427 21.9091 72.4288C22.0683 72.031 25.0917 63.0403 31.5364 52.6174C40.2088 38.6142 50.8703 28.8279 62.407 24.3724C81.0249 17.1321 92.0843 21.0307 92.5617 21.1898C94.4713 21.9059 95.426 23.9745 94.71 25.8045C93.9939 27.714 91.9252 28.6688 90.0953 27.9527C90.0157 27.9527 80.8658 24.9293 65.0326 31.0557C52.382 35.9886 43.2322 47.4458 37.8219 56.1978C34.5598 61.449 32.2524 66.3024 30.7407 69.8032C39.4927 69.4054 57.6332 67.5755 74.7394 60.2556C98.0516 50.3101 97.972 32.8061 97.972 32.647C97.972 30.817 99.245 29.2258 101.075 28.9871C102.905 28.7484 104.576 29.8622 105.053 31.6126L120.409 89.0576C120.886 90.9671 119.772 92.9563 117.863 93.5132C117.704 93.7519 117.386 93.7519 117.067 93.7519ZM56.9172 93.5132C56.4398 93.5132 55.8829 93.4337 55.4055 93.195C53.5755 92.3993 52.7798 90.2511 53.5754 88.4211L57.2354 80.3056C58.0311 78.4757 60.1793 77.68 62.0093 78.4756C63.8393 79.2713 64.6349 81.4195 63.8392 83.2495L60.1792 91.365C59.5427 92.7176 58.2698 93.5132 56.9172 93.5132Z" fill="#43C400"/>
</g>
<g id="_x33__20__3">
<path id="Vector_5" d="M117.067 159.707C97.8921 159.707 82.2977 144.113 82.2977 124.938C82.2977 118.335 84.1277 111.97 87.5489 106.559C91.3679 100.513 97.6534 97.0117 104.734 97.0117C110.463 97.0117 114.759 99.7964 117.146 101.308C119.772 99.7169 124.625 96.6935 131.149 97.0913C141.174 97.6482 146.664 106.48 148.096 109.185C150.563 113.799 151.915 119.289 151.915 124.938C151.915 129.314 151.12 133.611 149.528 137.668C148.812 139.498 146.664 140.453 144.834 139.737C143.004 139.021 142.05 136.873 142.766 135.043C144.039 131.86 144.675 128.439 144.675 125.018C144.675 120.483 143.641 116.186 141.731 112.606C139.663 108.787 135.685 104.57 130.752 104.331C126.455 104.093 123.114 106.161 120.886 107.514C119.454 108.389 118.419 109.026 117.067 109.026C115.635 109.026 114.6 108.389 113.248 107.435C111.259 106.161 108.315 104.331 104.734 104.331C98.5286 104.331 95.1074 108.23 93.6752 110.537C90.9701 114.834 89.5379 119.846 89.5379 125.018C89.5379 140.214 101.87 152.547 117.067 152.547C123.909 152.547 130.433 150.08 135.446 145.466C136.957 144.113 139.185 144.272 140.538 145.704C141.89 147.216 141.731 149.444 140.299 150.796C133.934 156.525 125.66 159.707 117.067 159.707ZM54.769 159.707C35.5943 159.707 20 144.113 20 124.938C20 118.335 21.8299 111.97 25.2511 106.559C29.0701 100.513 35.3556 97.0117 42.4367 97.0117C48.1652 97.0117 52.4616 99.7964 54.8485 101.308C57.4741 99.7169 62.3275 96.6935 68.8516 97.0913C71.7955 97.2504 74.5802 98.2052 77.2853 99.7964C78.9561 100.831 79.513 103.059 78.4787 104.809C77.4444 106.48 75.2166 107.037 73.4662 106.002C71.8749 104.968 70.2042 104.411 68.4538 104.331C64.1574 104.093 60.8157 106.161 58.588 107.514C57.1558 108.389 56.1215 109.026 54.769 109.026C53.3368 109.026 52.3026 108.389 50.95 107.435C48.9609 106.161 46.017 104.331 42.4367 104.331C36.2308 104.331 32.8096 108.23 31.3774 110.537C28.6723 114.834 27.2401 119.846 27.2401 125.018C27.2401 140.214 39.5724 152.547 54.769 152.547C61.7705 152.547 68.4538 149.921 73.5458 145.147C74.978 143.795 77.2853 143.874 78.6379 145.306C79.9904 146.739 79.9108 149.046 78.4787 150.398C72.0341 156.366 63.6005 159.707 54.769 159.707ZM101.472 135.998C100.12 135.998 98.7672 135.202 98.2103 133.849C97.0964 131.463 96.5395 128.837 96.5395 126.211C96.5395 122.711 97.4942 119.369 99.3242 116.505C100.358 114.834 102.666 114.277 104.337 115.391C106.007 116.425 106.485 118.732 105.451 120.403C104.337 122.154 103.78 124.143 103.78 126.291C103.78 127.882 104.098 129.473 104.814 130.906C105.61 132.736 104.814 134.884 103.064 135.679C102.507 135.918 101.95 135.998 101.472 135.998ZM38.4585 135.998C37.106 135.998 35.7534 135.202 35.1964 133.849C34.0826 131.463 33.5257 128.837 33.5257 126.211C33.5257 122.711 34.4804 119.369 36.3103 116.505C37.3446 114.834 39.652 114.277 41.3228 115.391C42.9936 116.425 43.471 118.732 42.4367 120.403C41.3228 122.154 40.7659 124.143 40.7659 126.291C40.7659 127.882 41.0841 129.473 41.8002 130.906C42.5958 132.736 41.8002 134.884 40.0498 135.679C39.4133 135.918 38.9359 135.998 38.4585 135.998Z" fill="#EB2D62"/>
<path id="Vector_6" d="M117.067 93.7519C115.476 93.7519 114.044 92.7176 113.567 91.0467L101.552 46.2524C97.9721 53.0949 91.1295 61.2103 77.6037 66.9389C52.5411 77.6005 26.3647 77.2026 25.2508 77.2026C24.1369 77.2026 23.023 76.6457 22.3865 75.6909C21.75 74.7362 21.5909 73.5427 21.9091 72.4288C22.0683 72.031 25.0917 63.0403 31.5364 52.6174C40.2088 38.6142 50.8703 28.8279 62.407 24.3724C81.0249 17.1321 92.0843 21.0307 92.5617 21.1898C94.4713 21.9059 95.426 23.9745 94.71 25.8045C93.9939 27.714 91.9252 28.6688 90.0953 27.9527C90.0157 27.9527 80.8658 24.9293 65.0326 31.0557C52.382 35.9886 43.2322 47.4458 37.8219 56.1978C34.5598 61.449 32.2524 66.3024 30.7407 69.8032C39.4927 69.4054 57.6332 67.5755 74.7394 60.2556C98.0516 50.3101 97.972 32.8061 97.972 32.647C97.972 30.817 99.245 29.2258 101.075 28.9871C102.905 28.7484 104.576 29.8622 105.053 31.6126L120.409 89.0576C120.886 90.9671 119.772 92.9563 117.863 93.5132C117.704 93.7519 117.386 93.7519 117.067 93.7519ZM56.9172 93.5132C56.4398 93.5132 55.8829 93.4337 55.4055 93.195C53.5755 92.3993 52.7798 90.2511 53.5754 88.4211L57.2354 80.3056C58.0311 78.4757 60.1793 77.68 62.0093 78.4756C63.8393 79.2713 64.6349 81.4195 63.8392 83.2495L60.1792 91.365C59.5427 92.7176 58.2698 93.5132 56.9172 93.5132Z" fill="#43C400"/>
</g>
<g id="_x32__4_">
<path id="Vector_7" d="M117.066 157.802C98.7669 157.802 83.8886 142.924 83.8886 124.624C83.8886 118.339 85.6389 112.292 88.901 107.121C90.9697 103.858 95.8231 98.2891 104.655 98.2891C109.906 98.2891 113.963 100.915 116.191 102.347C116.509 102.506 116.828 102.745 117.066 102.904C117.305 102.745 117.623 102.585 117.942 102.426C120.408 100.915 125.023 98.0503 131.069 98.3686C140.299 98.846 145.391 107.121 146.664 109.667C149.051 114.043 150.244 119.294 150.244 124.704C150.244 128.841 149.448 132.978 147.937 136.798C147.539 137.832 146.346 138.309 145.391 137.911C144.356 137.514 143.879 136.32 144.277 135.365C145.629 131.944 146.266 128.364 146.266 124.704C146.266 119.93 145.152 115.395 143.163 111.576C140.935 107.359 136.48 102.745 130.831 102.426C126.057 102.188 122.317 104.495 120.09 105.848C118.817 106.643 118.021 107.121 117.146 107.121C116.191 107.121 115.475 106.643 114.202 105.848C112.213 104.575 108.871 102.426 104.814 102.426C97.8121 102.426 93.9931 106.802 92.4018 109.348C89.5375 113.883 88.0258 119.214 88.0258 124.704C88.0258 140.776 101.154 153.904 117.225 153.904C124.466 153.904 131.388 151.278 136.718 146.425C137.514 145.709 138.787 145.788 139.503 146.584C140.219 147.379 140.14 148.652 139.344 149.368C133.138 154.779 125.261 157.802 117.066 157.802ZM54.7686 157.802C36.4691 157.802 21.5908 142.924 21.5908 124.624C21.5908 118.339 23.3411 112.292 26.6032 107.121C28.6718 103.858 33.5253 98.2891 42.3568 98.2891C47.6079 98.2891 51.6656 100.915 53.8934 102.347C54.2116 102.506 54.5299 102.745 54.7686 102.904C55.0072 102.745 55.3255 102.585 55.6438 102.426C58.1102 100.915 62.7248 98.0503 68.7716 98.3686C71.3972 98.5277 74.0228 99.3234 76.4097 100.835C77.3644 101.392 77.6032 102.665 77.0462 103.54C76.4893 104.495 75.2162 104.734 74.341 104.177C72.511 103.063 70.6016 102.426 68.6126 102.267C63.8388 102.029 60.0993 104.336 57.8715 105.688C56.5985 106.484 55.8029 106.961 54.9277 106.961C53.973 106.961 53.2568 106.484 51.9838 105.688C49.9947 104.415 46.6531 102.267 42.5954 102.267C35.5939 102.267 31.7749 106.643 30.1836 109.189C27.3194 113.724 25.8076 119.055 25.8076 124.545C25.8076 140.617 38.9355 153.744 55.0072 153.744C62.4066 153.744 69.4877 150.96 74.898 145.947C75.6936 145.231 76.9667 145.231 77.6827 146.027C78.3988 146.822 78.3987 148.095 77.6031 148.812C71.2381 154.62 63.2022 157.802 54.7686 157.802ZM101.472 134.172C100.756 134.172 99.9603 133.774 99.6421 132.979C98.6077 130.751 98.1303 128.443 98.1303 125.977C98.1303 122.794 99.0056 119.692 100.676 117.066C101.233 116.111 102.506 115.872 103.382 116.429C104.336 116.986 104.575 118.259 104.018 119.135C102.745 121.124 102.108 123.431 102.108 125.897C102.108 127.727 102.506 129.557 103.222 131.228C103.7 132.262 103.222 133.376 102.268 133.854C102.029 134.092 101.711 134.172 101.472 134.172ZM38.4581 134.172C37.7421 134.172 36.9465 133.774 36.6282 132.979C35.5939 130.751 35.1165 128.443 35.1165 125.977C35.1165 122.794 35.9916 119.692 37.6625 117.066C38.2194 116.111 39.4924 115.872 40.4472 116.429C41.402 116.986 41.6407 118.259 41.0837 119.135C39.8107 121.124 39.1742 123.431 39.1742 125.897C39.1742 127.727 39.572 129.557 40.288 131.228C40.7654 132.262 40.2881 133.376 39.3333 133.854C39.0151 134.092 38.6968 134.172 38.4581 134.172Z" fill="#FF6376"/>
<path id="Vector_8" d="M117.067 91.9232C116.192 91.9232 115.397 91.3662 115.158 90.4115L101.95 41.1616C99.4042 48.4019 92.9596 58.4269 76.9673 65.2694C52.223 75.8513 26.4444 75.4535 25.3305 75.3739C24.694 75.3739 24.137 75.0557 23.7392 74.4987C23.3413 73.9418 23.2618 73.3053 23.5005 72.7484C23.6596 72.3506 26.683 63.519 32.9686 53.2552C41.4819 39.5703 51.8252 30.0226 63.0436 25.6466C81.1046 18.645 91.6071 22.305 92.0844 22.4641C93.1188 22.862 93.6757 23.9758 93.2779 25.0102C92.88 26.0445 91.7662 26.6014 90.7319 26.2036C90.6523 26.2036 81.025 22.9415 64.5554 29.3861C43.471 37.5812 31.6955 63.0416 28.3539 71.3958C35.7533 71.1571 56.2808 69.8841 75.5352 61.6095C99.7225 51.2662 99.8021 33.2052 99.8021 32.4891C99.8021 31.4548 100.518 30.6592 101.553 30.5C102.507 30.3409 103.462 30.9774 103.78 31.9322L119.136 89.3772C119.454 90.4115 118.818 91.5254 117.704 91.8436C117.465 91.9232 117.227 91.9232 117.067 91.9232ZM56.9173 91.6049C56.6786 91.6049 56.3603 91.5254 56.1216 91.4458C55.0873 90.9685 54.6894 89.8546 55.0873 88.8202L58.7472 80.7048C59.2246 79.6704 60.3385 79.2726 61.3729 79.6704C62.4072 80.1478 62.8049 81.2617 62.4071 82.296L58.7472 90.4115C58.3494 91.2071 57.6334 91.6049 56.9173 91.6049Z" fill="#98EA00"/>
</g>
<g id="_x31__4_">
<path id="Vector_9" d="M117.067 156.286C99.4834 156.286 85.1619 141.965 85.1619 124.381C85.1619 118.334 86.8328 112.526 89.9358 107.514C91.8453 104.411 96.3804 99.3188 104.655 99.3188C109.508 99.3188 113.248 101.706 115.476 103.138C116.112 103.536 116.828 104.013 116.987 104.013C117.146 104.013 117.862 103.536 118.499 103.138C120.806 101.706 125.182 99.0005 130.831 99.3188C137.594 99.7166 142.845 105.047 145.391 109.901C147.619 114.117 148.812 119.13 148.812 124.302C148.812 128.28 148.096 132.258 146.585 135.918C146.425 136.316 146.028 136.475 145.63 136.316C145.232 136.156 145.073 135.759 145.232 135.361C146.585 131.86 147.301 128.121 147.301 124.222C147.301 119.209 146.187 114.515 144.039 110.458C141.652 105.922 136.798 100.99 130.672 100.592C125.5 100.274 121.522 102.74 119.135 104.252C118.021 104.968 117.385 105.286 116.828 105.286C116.271 105.286 115.635 104.888 114.521 104.172C112.452 102.82 108.872 100.592 104.416 100.592C96.8578 100.592 92.7204 105.286 90.8905 108.15C87.8671 112.844 86.2758 118.414 86.2758 124.222C86.2758 141.01 99.9607 154.695 116.748 154.695C124.307 154.695 131.468 151.91 137.117 146.897C137.435 146.659 137.833 146.659 138.151 146.977C138.469 147.295 138.39 147.693 138.071 148.011C132.582 153.342 124.943 156.286 117.067 156.286ZM54.769 156.286C37.1855 156.286 22.8643 141.965 22.8643 124.381C22.8643 118.334 24.535 112.526 27.638 107.514C29.5475 104.411 34.0826 99.3188 42.3572 99.3188C47.2105 99.3188 50.95 101.706 53.1777 103.138C53.8142 103.536 54.5303 104.013 54.6894 104.013C54.8486 104.013 55.5645 103.536 56.201 103.138C58.5084 101.706 62.8843 99.0005 68.5333 99.3188C70.9998 99.4779 73.3071 100.194 75.6144 101.626C75.9327 101.865 76.0918 102.263 75.8531 102.66C75.6144 102.979 75.2167 103.138 74.8189 102.899C72.8298 101.626 70.6816 100.91 68.4538 100.83C63.2822 100.512 59.3041 102.979 56.9172 104.49C55.8033 105.206 55.1667 105.525 54.6098 105.525C54.0529 105.525 53.4164 105.127 52.3025 104.411C50.2339 103.058 46.6535 100.83 42.198 100.83C34.6395 100.83 30.5023 105.525 28.6723 108.389C25.6489 113.083 24.0577 118.653 24.0577 124.461C24.0577 141.248 37.7425 154.933 54.5303 154.933C62.2479 154.933 69.6472 152.069 75.2962 146.738C75.6145 146.5 76.0122 146.5 76.3305 146.738C76.5691 147.057 76.5691 147.454 76.3305 147.773C70.6019 153.183 62.8844 156.286 54.769 156.286ZM101.472 132.576C101.234 132.576 100.915 132.417 100.836 132.178C99.8811 130.11 99.4038 127.961 99.4038 125.734C99.4038 122.79 100.199 119.926 101.711 117.539C101.95 117.22 102.348 117.061 102.745 117.3C103.064 117.539 103.223 117.936 102.984 118.334C101.632 120.482 100.836 123.108 100.836 125.734C100.836 127.802 101.234 129.712 102.109 131.542C102.268 131.94 102.109 132.337 101.791 132.496C101.632 132.576 101.552 132.576 101.472 132.576ZM38.4585 132.576C38.2198 132.576 37.9016 132.417 37.822 132.178C36.8673 130.11 36.3899 127.961 36.3899 125.734C36.3899 122.79 37.1855 119.926 38.6972 117.539C38.9359 117.22 39.3337 117.061 39.7316 117.3C40.0498 117.539 40.2089 117.936 39.9702 118.334C38.6177 120.482 37.822 123.108 37.822 125.734C37.822 127.802 38.2199 129.712 39.095 131.542C39.2542 131.94 39.0951 132.337 38.7768 132.496C38.6177 132.576 38.5381 132.576 38.4585 132.576Z" fill="#FF8E8F"/>
<path id="Vector_10" d="M117.067 90.3291C116.749 90.3291 116.431 90.0904 116.351 89.7722L101.95 35.9075C100.677 42.3522 95.6646 55.6393 76.4898 63.7548C51.9842 74.1777 25.6487 73.7799 25.3304 73.7799C25.0917 73.7799 24.853 73.7003 24.7734 73.4616C24.6143 73.3025 24.6143 73.0638 24.6939 72.8251C24.853 72.4272 37.1057 36.7827 63.5209 26.519C81.1045 19.6765 91.2092 23.1773 91.607 23.3364C92.0048 23.4956 92.1638 23.8934 92.0047 24.2912C91.8456 24.689 91.4478 24.8482 91.05 24.6891C90.9704 24.6891 81.0249 21.1883 63.9187 27.8716C50.4725 33.1228 40.8452 45.1369 35.1962 54.3663C30.1837 62.4818 27.2399 69.8017 26.2851 72.3477C31.2976 72.3477 54.2916 71.6316 75.7738 62.4022C100.836 51.6611 100.836 32.2476 100.836 32.0885C100.836 31.6907 101.075 31.3724 101.473 31.3724C101.791 31.2928 102.189 31.5315 102.268 31.9293L117.783 89.4539C117.863 89.8517 117.624 90.2495 117.306 90.3291C117.226 90.3291 117.147 90.3291 117.067 90.3291ZM56.9172 90.0904C56.8376 90.0904 56.758 90.0904 56.5989 90.0108C56.2011 89.8517 56.0419 89.4539 56.201 89.0561L59.861 80.9406C60.0201 80.5428 60.4179 80.3836 60.8157 80.5428C61.2136 80.7019 61.3727 81.0997 61.2136 81.4975L57.5536 89.613C57.3945 89.9313 57.1559 90.0904 56.9172 90.0904Z" fill="#FEFE00"/>
</g>
</g>
<defs>
<filter id="filter0_f_0_3126" x="0" y="0" width="171.915" height="179.707" filterUnits="userSpaceOnUse" color-interpolation-filters="sRGB">
<feFlood flood-opacity="0" result="BackgroundImageFix"/>
<feBlend mode="normal" in="SourceGraphic" in2="BackgroundImageFix" result="shape"/>
<feGaussianBlur stdDeviation="10" result="effect1_foregroundBlur_0_3126"/>
</filter>
<filter id="filter1_f_0_3126" x="10" y="10" width="151.915" height="159.707" filterUnits="userSpaceOnUse" color-interpolation-filters="sRGB">
<feFlood flood-opacity="0" result="BackgroundImageFix"/>
<feBlend mode="normal" in="SourceGraphic" in2="BackgroundImageFix" result="shape"/>
<feGaussianBlur stdDeviation="5" result="effect1_foregroundBlur_0_3126"/>
</filter>
</defs>
</svg>
