<svg width="34" height="34" viewBox="0 0 34 34" fill="none" xmlns="http://www.w3.org/2000/svg">
<g id="close" opacity="0.5" clip-path="url(#clip0_0_3225)">
<path id="Vector" d="M19.8326 16.9969L32.5826 4.24687C33.3922 3.43735 33.3922 2.22306 32.5826 1.41354C31.7731 0.604016 30.5588 0.604016 29.7493 1.41354L16.9993 14.1635L4.24931 1.41354C3.43979 0.604016 2.2255 0.604016 1.41598 1.41354C0.606457 2.22306 0.606457 3.43735 1.41598 4.24687L14.166 16.9969L1.41598 29.7469C1.01122 30.1516 0.808838 30.5564 0.808838 31.1635C0.808838 32.3778 1.61836 33.1873 2.83265 33.1873C3.43979 33.1873 3.84455 32.985 4.24931 32.5802L16.9993 19.8302L29.7493 32.5802C30.1541 32.985 30.5588 33.1873 31.166 33.1873C31.7731 33.1873 32.1779 32.985 32.5826 32.5802C33.3922 31.7707 33.3922 30.5564 32.5826 29.7469L19.8326 16.9969Z" fill="white"/>
</g>
<defs>
<clipPath id="clip0_0_3225">
<rect width="34" height="34" fill="white"/>
</clipPath>
</defs>
</svg>
