<svg width="188" height="164" viewBox="0 0 188 164" fill="none" xmlns="http://www.w3.org/2000/svg">
<g id="icon_2_">
<g id="_x33__8_" filter="url(#filter0_f_0_3143)">
<path id="Vector" d="M94.0232 143.345C92.3273 143.345 90.7053 142.607 89.5993 141.354L59.3691 106.478C58.1894 105.078 58.3369 102.939 59.7378 101.76C61.1387 100.58 63.2769 100.727 64.4566 102.128L94.0232 136.193L160.677 59.2899L134.723 27.3639H53.3231L27.3694 59.2899L54.7977 90.921C55.9775 92.3219 55.83 94.4602 54.4291 95.6399C53.0282 96.8196 50.8899 96.6721 49.7102 95.2712L21.8395 63.124C19.9962 60.9858 19.9225 57.8153 21.692 55.6033L48.3831 22.7925C49.4891 21.3916 51.1112 20.6543 52.8808 20.6543H135.092C136.862 20.6543 138.484 21.4654 139.59 22.7925L166.281 55.6033C168.05 57.8153 168.05 60.9858 166.133 63.124L98.2996 141.354C97.3411 142.607 95.719 143.345 94.0232 143.345Z" fill="#00A2FF"/>
<path id="Vector_2" d="M94.0233 143.346C92.7698 143.346 91.5902 142.609 91.0004 141.429L53.4706 64.6742C52.9545 63.642 53.0283 62.3885 53.6181 61.43L78.0234 22.8681C78.9819 21.3197 81.0465 20.8036 82.6686 21.8359C84.217 22.7944 84.7331 24.8589 83.7008 26.481L60.3278 63.4945L94.0233 132.434L128.53 61.7987C129.341 60.1028 131.332 59.4393 133.028 60.2503C134.723 61.0614 135.387 63.0521 134.576 64.7479L97.0463 141.503C96.4565 142.609 95.2767 143.346 94.0233 143.346Z" fill="#00A2FF"/>
<path id="Vector_3" d="M123.37 53.6845C122.264 53.6845 121.158 53.1684 120.568 52.1362L104.494 26.6983C103.536 25.15 103.978 23.0855 105.526 22.0532C107.075 21.0947 109.139 21.5371 110.171 23.0855L126.245 48.5233C127.204 50.0717 126.761 52.1362 125.213 53.1684C124.623 53.4633 124.033 53.6845 123.37 53.6845Z" fill="#00A2FF"/>
<path id="Vector_4" d="M131.406 66.517H56.4204C56.2729 66.517 56.1992 66.517 56.0517 66.517L24.4944 62.9041C22.6511 62.6829 21.3239 61.0608 21.5451 59.2175C21.7663 57.3742 23.3884 56.047 25.2317 56.2682L56.5679 59.8811H131.185L162.668 56.2682C164.512 56.047 166.134 57.3742 166.355 59.2175C166.576 61.0608 165.249 62.6829 163.406 62.9041L131.775 66.517C131.627 66.517 131.48 66.517 131.406 66.517Z" fill="#00A2FF"/>
</g>
<g id="_x33__8__2" filter="url(#filter1_f_0_3143)">
<path id="Vector_5" d="M94.0232 143.345C92.3273 143.345 90.7053 142.607 89.5993 141.354L59.3691 106.478C58.1894 105.078 58.3369 102.939 59.7378 101.76C61.1387 100.58 63.2769 100.727 64.4566 102.128L94.0232 136.193L160.677 59.2899L134.723 27.3639H53.3231L27.3694 59.2899L54.7977 90.921C55.9775 92.3219 55.83 94.4602 54.4291 95.6399C53.0282 96.8196 50.8899 96.6721 49.7102 95.2712L21.8395 63.124C19.9962 60.9858 19.9225 57.8153 21.692 55.6033L48.3831 22.7925C49.4891 21.3916 51.1112 20.6543 52.8808 20.6543H135.092C136.862 20.6543 138.484 21.4654 139.59 22.7925L166.281 55.6033C168.05 57.8153 168.05 60.9858 166.133 63.124L98.2996 141.354C97.3411 142.607 95.719 143.345 94.0232 143.345Z" fill="#00A2FF"/>
<path id="Vector_6" d="M94.0233 143.346C92.7698 143.346 91.5902 142.609 91.0004 141.429L53.4706 64.6742C52.9545 63.642 53.0283 62.3885 53.6181 61.43L78.0234 22.8681C78.9819 21.3197 81.0465 20.8036 82.6686 21.8359C84.217 22.7944 84.7331 24.8589 83.7008 26.481L60.3278 63.4945L94.0233 132.434L128.53 61.7987C129.341 60.1028 131.332 59.4393 133.028 60.2503C134.723 61.0614 135.387 63.0521 134.576 64.7479L97.0463 141.503C96.4565 142.609 95.2767 143.346 94.0233 143.346Z" fill="#00A2FF"/>
<path id="Vector_7" d="M123.37 53.6845C122.264 53.6845 121.158 53.1684 120.568 52.1362L104.494 26.6983C103.536 25.15 103.978 23.0855 105.526 22.0532C107.075 21.0947 109.139 21.5371 110.171 23.0855L126.245 48.5233C127.204 50.0717 126.761 52.1362 125.213 53.1684C124.623 53.4633 124.033 53.6845 123.37 53.6845Z" fill="#00A2FF"/>
<path id="Vector_8" d="M131.406 66.517H56.4204C56.2729 66.517 56.1992 66.517 56.0517 66.517L24.4944 62.9041C22.6511 62.6829 21.3239 61.0608 21.5451 59.2175C21.7663 57.3742 23.3884 56.047 25.2317 56.2682L56.5679 59.8811H131.185L162.668 56.2682C164.512 56.047 166.134 57.3742 166.355 59.2175C166.576 61.0608 165.249 62.6829 163.406 62.9041L131.775 66.517C131.627 66.517 131.48 66.517 131.406 66.517Z" fill="#00A2FF"/>
</g>
<g id="_x33__8__3">
<path id="Vector_9" d="M94.0232 143.345C92.3273 143.345 90.7053 142.607 89.5993 141.354L59.3691 106.478C58.1894 105.078 58.3369 102.939 59.7378 101.76C61.1387 100.58 63.2769 100.727 64.4566 102.128L94.0232 136.193L160.677 59.2899L134.723 27.3639H53.3231L27.3694 59.2899L54.7977 90.921C55.9775 92.3219 55.83 94.4602 54.4291 95.6399C53.0282 96.8196 50.8899 96.6721 49.7102 95.2712L21.8395 63.124C19.9962 60.9858 19.9225 57.8153 21.692 55.6033L48.3831 22.7925C49.4891 21.3916 51.1112 20.6543 52.8808 20.6543H135.092C136.862 20.6543 138.484 21.4654 139.59 22.7925L166.281 55.6033C168.05 57.8153 168.05 60.9858 166.133 63.124L98.2996 141.354C97.3411 142.607 95.719 143.345 94.0232 143.345Z" fill="#00A2FF"/>
<path id="Vector_10" d="M94.0233 143.346C92.7698 143.346 91.5902 142.609 91.0004 141.429L53.4706 64.6742C52.9545 63.642 53.0283 62.3885 53.6181 61.43L78.0234 22.8681C78.9819 21.3197 81.0465 20.8036 82.6686 21.8359C84.217 22.7944 84.7331 24.8589 83.7008 26.481L60.3278 63.4945L94.0233 132.434L128.53 61.7987C129.341 60.1028 131.332 59.4393 133.028 60.2503C134.723 61.0614 135.387 63.0521 134.576 64.7479L97.0463 141.503C96.4565 142.609 95.2767 143.346 94.0233 143.346Z" fill="#00A2FF"/>
<path id="Vector_11" d="M123.37 53.6845C122.264 53.6845 121.158 53.1684 120.568 52.1362L104.494 26.6983C103.536 25.15 103.978 23.0855 105.526 22.0532C107.075 21.0947 109.139 21.5371 110.171 23.0855L126.245 48.5233C127.204 50.0717 126.761 52.1362 125.213 53.1684C124.623 53.4633 124.033 53.6845 123.37 53.6845Z" fill="#00A2FF"/>
<path id="Vector_12" d="M131.406 66.517H56.4204C56.2729 66.517 56.1992 66.517 56.0517 66.517L24.4944 62.9041C22.6511 62.6829 21.3239 61.0608 21.5451 59.2175C21.7663 57.3742 23.3884 56.047 25.2317 56.2682L56.5679 59.8811H131.185L162.668 56.2682C164.512 56.047 166.134 57.3742 166.355 59.2175C166.576 61.0608 165.249 62.6829 163.406 62.9041L131.775 66.517C131.627 66.517 131.48 66.517 131.406 66.517Z" fill="#00A2FF"/>
</g>
<g id="_x32__2_">
<path id="Vector_13" d="M94.0235 141.65C92.7701 141.65 91.5905 141.133 90.7794 140.175L60.5492 105.3C59.8856 104.562 59.9594 103.383 60.7704 102.719C61.5077 102.055 62.6875 102.129 63.3511 102.94L93.5812 137.816C93.7286 138.037 93.9498 138.037 94.0235 138.037C94.0973 138.037 94.3186 138.037 94.466 137.816L162.3 59.5858C162.521 59.3646 162.521 58.996 162.3 58.7748L135.609 25.964C135.461 25.8165 135.314 25.7428 135.092 25.7428H52.8811C52.6599 25.7428 52.5124 25.8165 52.3649 25.964L25.674 58.7748C25.4528 58.996 25.4528 59.3646 25.674 59.5858L53.5447 91.733C54.2083 92.4703 54.1346 93.65 53.3235 94.3136C52.5862 94.9772 51.4064 94.9035 50.7428 94.0924L22.8721 61.9452C21.4712 60.3231 21.4712 58.0374 22.7984 56.4153L49.4894 23.6045C50.3005 22.5723 51.5539 21.9824 52.8073 21.9824H135.019C136.346 21.9824 137.526 22.5723 138.337 23.6045L165.028 56.4153C166.355 58.0374 166.355 60.3969 164.954 61.9452L97.1204 140.175C96.4568 141.133 95.277 141.65 94.0235 141.65Z" fill="#21E0FF"/>
<path id="Vector_14" d="M94.0226 141.648C93.2852 141.648 92.6955 141.28 92.4006 140.616L54.8708 63.7874C54.5759 63.1975 54.6497 62.5339 54.9446 62.0178L79.7186 22.866C80.2347 21.9812 81.4144 21.76 82.2255 22.2762C83.1103 22.7923 83.3315 23.972 82.8154 24.7831L58.6312 63.05L94.0226 135.529L129.856 62.1652C130.299 61.2805 131.405 60.8381 132.29 61.2805C133.174 61.7229 133.617 62.8288 133.101 63.7136L95.571 140.542C95.3498 141.206 94.7599 141.648 94.0226 141.648Z" fill="#21E0FF"/>
<path id="Vector_15" d="M123.369 51.991C122.779 51.991 122.189 51.696 121.821 51.1062L105.231 24.8573C104.715 23.9725 104.936 22.8665 105.821 22.3504C106.705 21.8343 107.811 22.0555 108.328 22.9403L124.917 49.1891C125.434 50.0739 125.212 51.1799 124.328 51.696C124.033 51.8435 123.738 51.991 123.369 51.991Z" fill="#21E0FF"/>
<path id="Vector_16" d="M131.406 64.8202H56.4209C56.3472 64.8202 56.2734 64.8202 56.1997 64.8202L24.6423 61.2073C23.6101 61.0599 22.8728 60.1751 23.0203 59.1429C23.1677 58.1106 24.0525 57.3733 25.0847 57.5207L56.4946 61.1336H131.259L162.816 57.5207C163.849 57.3733 164.733 58.1106 164.881 59.1429C165.028 60.1751 164.291 61.0599 163.259 61.2073L131.628 64.8202C131.48 64.8202 131.406 64.8202 131.406 64.8202Z" fill="#21E0FF"/>
</g>
<g id="_x31__2_">
<path id="Vector_17" d="M94.0234 140.321C93.1387 140.321 92.2539 139.952 91.6641 139.215L61.4339 104.34C61.2127 104.045 61.2127 103.602 61.5077 103.381C61.8026 103.16 62.2449 103.16 62.4661 103.455L92.6963 138.33C93.3599 139.141 94.7608 139.141 95.4244 138.33L163.258 60.1004C163.848 59.4369 163.848 58.4783 163.258 57.8147L136.567 25.0039C136.198 24.5616 135.682 24.3404 135.166 24.3404H52.9547C52.4386 24.3404 51.9224 24.5616 51.5538 25.0039L24.8628 57.8147C24.2729 58.4783 24.3466 59.4369 24.9365 60.1004L52.8072 92.2476C53.0284 92.5425 53.0285 92.9849 52.7335 93.2061C52.4386 93.4273 51.9962 93.4273 51.775 93.1324L23.9042 60.9852C22.872 59.8055 22.872 58.1097 23.8306 56.93L50.5215 24.1192C51.1114 23.3818 51.9962 22.9395 52.9547 22.9395H135.166C136.124 22.9395 137.009 23.3818 137.599 24.1192L164.29 56.93C165.249 58.1097 165.249 59.8055 164.216 60.9852L96.3829 139.215C95.7931 139.879 94.9082 140.321 94.0234 140.321Z" fill="#B6FFFF"/>
<path id="Vector_18" d="M94.0229 140.319C93.8017 140.319 93.5069 140.172 93.4332 139.95L55.9034 63.1216C55.8297 62.9004 55.8297 62.6792 55.9034 62.458L80.6774 23.3062C80.8986 23.0113 81.2673 22.8638 81.636 23.085C81.9309 23.3062 82.0784 23.6749 81.8572 24.0435L57.3044 62.9003L94.0229 138.107L130.889 62.5317C131.036 62.163 131.479 62.0893 131.774 62.2368C132.143 62.3842 132.216 62.8266 132.069 63.1216L94.5391 139.95C94.5391 140.172 94.3179 140.319 94.0229 140.319Z" fill="#B6FFFF"/>
<path id="Vector_19" d="M123.369 50.5873C123.148 50.5873 122.926 50.5136 122.779 50.2924L106.189 24.0435C105.968 23.7486 106.115 23.3062 106.41 23.085C106.705 22.8638 107.148 23.0113 107.369 23.3062L123.959 49.5551C124.18 49.85 124.032 50.2924 123.737 50.5136C123.664 50.5873 123.516 50.5873 123.369 50.5873Z" fill="#B6FFFF"/>
<path id="Vector_20" d="M131.406 63.4925H56.4203H56.3466L24.7892 59.8796C24.4206 59.8058 24.1256 59.5109 24.1994 59.1423C24.2731 58.7736 24.568 58.4787 24.9367 58.5524L56.4203 62.1653H131.332L162.963 58.5524C163.332 58.4787 163.627 58.7736 163.701 59.1423C163.774 59.5109 163.479 59.8058 163.111 59.8796L131.48 63.4925C131.406 63.4925 131.406 63.4925 131.406 63.4925Z" fill="#B6FFFF"/>
</g>
</g>
<defs>
<filter id="filter0_f_0_3143" x="0.409668" y="0.654297" width="187.18" height="162.692" filterUnits="userSpaceOnUse" color-interpolation-filters="sRGB">
<feFlood flood-opacity="0" result="BackgroundImageFix"/>
<feBlend mode="normal" in="SourceGraphic" in2="BackgroundImageFix" result="shape"/>
<feGaussianBlur stdDeviation="10" result="effect1_foregroundBlur_0_3143"/>
</filter>
<filter id="filter1_f_0_3143" x="10.4097" y="10.6543" width="167.18" height="142.692" filterUnits="userSpaceOnUse" color-interpolation-filters="sRGB">
<feFlood flood-opacity="0" result="BackgroundImageFix"/>
<feBlend mode="normal" in="SourceGraphic" in2="BackgroundImageFix" result="shape"/>
<feGaussianBlur stdDeviation="5" result="effect1_foregroundBlur_0_3143"/>
</filter>
</defs>
</svg>
