<svg width="50" height="50" viewBox="0 0 50 50" fill="none" xmlns="http://www.w3.org/2000/svg">
<g id="ant-design:history-outlined">
<path id="Vector" d="M26.1769 13.33H23.8282C23.6134 13.33 23.4376 13.5057 23.4376 13.7206V27.163C23.4376 27.2899 23.4962 27.4071 23.5987 27.4804L31.67 33.3739C31.8458 33.5009 32.09 33.4667 32.2169 33.2909L33.6134 31.3866C33.7452 31.2059 33.7062 30.9618 33.5304 30.8397L26.5675 25.8055V13.7206C26.5675 13.5057 26.3917 13.33 26.1769 13.33ZM36.9093 17.0018L44.5655 18.872C44.8097 18.9305 45.0489 18.745 45.0489 18.496L45.088 10.6102C45.088 10.2831 44.712 10.0975 44.4581 10.3026L36.7628 16.3134C36.7047 16.3584 36.6604 16.4188 36.6351 16.4879C36.6098 16.5569 36.6044 16.6317 36.6197 16.7036C36.635 16.7755 36.6703 16.8417 36.7216 16.8944C36.7728 16.9472 36.8379 16.9844 36.9093 17.0018ZM45.0978 31.704L42.3292 30.7518C42.2327 30.7188 42.127 30.7247 42.0349 30.7685C41.9427 30.8123 41.8714 30.8905 41.8361 30.9862C41.7433 31.2352 41.6456 31.4794 41.5431 31.7235C40.6739 33.7792 39.4288 35.6298 37.837 37.2167C36.2629 38.7957 34.3974 40.0543 32.3439 40.9227C30.2166 41.8221 27.9299 42.2838 25.6202 42.2802C23.2862 42.2802 21.0255 41.8261 18.8966 40.9227C16.8431 40.0543 14.9776 38.7957 13.4034 37.2167C11.8165 35.6298 10.5714 33.7792 9.69737 31.7235C8.80292 29.595 8.34466 27.3087 8.34972 24.9999C8.34972 22.6659 8.80382 20.4003 9.70714 18.2714C10.5763 16.2157 11.8214 14.3651 13.4132 12.7782C14.9873 11.1992 16.8528 9.94059 18.9064 9.07215C21.0255 8.16883 23.2911 7.71473 25.6251 7.71473C27.9591 7.71473 30.2198 8.16883 32.3487 9.07215C34.4023 9.94059 36.2678 11.1992 37.8419 12.7782C38.34 13.2811 38.8087 13.8036 39.2384 14.3554L42.1583 12.0702C38.3155 7.15809 32.3341 3.99891 25.6153 4.00379C13.9161 4.00867 4.52159 13.5106 4.63878 25.2147C4.75597 36.7138 14.1066 45.996 25.6251 45.996C34.6827 45.996 42.3976 40.2538 45.337 32.2118C45.4103 32.0067 45.3028 31.7772 45.0978 31.704Z" fill="#7400FF"/>
</g>
</svg>
