<svg width="49" height="48" viewBox="0 0 49 48" fill="none" xmlns="http://www.w3.org/2000/svg">
<g id="apple 1">
<g id="Layer 146">
<path id="Vector" d="M41.58 16.9575C39.6492 16.459 37.9387 15.3334 36.717 13.7573C35.4952 12.1813 34.8315 10.2441 34.83 8.25003C34.83 8.18253 34.83 8.11503 34.83 8.04753C34.4775 7.95753 34.125 7.86753 33.7575 7.80753C30.9637 7.28316 28.0775 7.5882 25.455 8.68503C22.8279 7.58568 19.9362 7.2806 17.1375 7.80753C9.39003 9.19503 4.65003 15.915 6.55503 26.5125C8.46003 37.11 16.305 46.08 24.0225 44.6925C24.5096 44.6039 24.9886 44.476 25.455 44.31C25.9214 44.476 26.4005 44.6039 26.8875 44.6925C34.635 46.08 42.4575 37.1175 44.355 26.5125C44.7076 24.6217 44.8335 22.6956 44.73 20.775C43.8893 20.5162 43.1429 20.0167 42.5831 19.3382C42.0232 18.6598 41.6745 17.8321 41.58 16.9575Z" fill="#F2EC25" stroke="#F2EC25" stroke-width="2" stroke-linecap="round" stroke-linejoin="round"/>
<path id="Vector_2" opacity="0.1" d="M44.3549 22.7625C42.4574 33.36 34.6049 42.33 26.8874 40.9425C26.4004 40.8539 25.9213 40.726 25.4549 40.56C24.9885 40.726 24.5094 40.8539 24.0224 40.9425C16.2749 42.33 8.4524 33.3675 6.55491 22.7625C6.39741 21.885 6.2999 21.0375 6.2324 20.2125C6.05752 22.3175 6.16599 24.4364 6.55491 26.5125C8.4524 37.11 16.3049 46.08 24.0224 44.6925C24.5094 44.6039 24.9885 44.476 25.4549 44.31C25.9213 44.476 26.4004 44.6039 26.8874 44.6925C34.6349 46.08 42.4574 37.1175 44.3549 26.5125C44.7438 24.4364 44.8523 22.3175 44.6774 20.2125C44.5799 21.045 44.5124 21.885 44.3549 22.7625Z" fill="#5B3B63" stroke="#5B3B63" stroke-width="2" stroke-linecap="round" stroke-linejoin="bevel"/>
<path id="Vector_3" d="M27.3299 3C27.3299 3 24.3299 6.75 25.8299 13.5" stroke="#8D6E63" stroke-width="2" stroke-miterlimit="10"/>
<path id="Vector_4" d="M23.04 12.75C23.8786 13.2629 24.8473 13.5233 25.83 13.5C26.9006 13.5376 27.9541 13.2242 28.83 12.6075" stroke="#F57E17" stroke-width="2" stroke-linecap="round" stroke-linejoin="round"/>
<path id="Vector_5" d="M18.3301 25.5C19.1585 25.5 19.8301 24.8284 19.8301 24C19.8301 23.1716 19.1585 22.5 18.3301 22.5C17.5017 22.5 16.8301 23.1716 16.8301 24C16.8301 24.8284 17.5017 25.5 18.3301 25.5Z" fill="#4F4F4F"/>
<path id="Vector_6" d="M31.8301 25.5C32.6585 25.5 33.3301 24.8284 33.3301 24C33.3301 23.1716 32.6585 22.5 31.8301 22.5C31.0017 22.5 30.3301 23.1716 30.3301 24C30.3301 24.8284 31.0017 25.5 31.8301 25.5Z" fill="#4F4F4F"/>
<path id="Vector_7" d="M18.3301 20.25C17.3355 20.25 16.3817 20.6451 15.6784 21.3483C14.9752 22.0516 14.5801 23.0054 14.5801 24" stroke="#8D6E63" stroke-width="2" stroke-miterlimit="10"/>
<path id="Vector_8" d="M27.3301 30C27.3301 28.7574 26.3227 27.75 25.0801 27.75C23.8374 27.75 22.8301 28.7574 22.8301 30V32.25C22.8301 33.4926 23.8374 34.5 25.0801 34.5C26.3227 34.5 27.3301 33.4926 27.3301 32.25V30Z" fill="#FF4931"/>
</g>
</g>
</svg>
